#N canvas 0 94 1920 986 16;
#X obj 555 152 mtof;
#X msg 424 93 48;
#X msg 480 93 69;
#X msg 542 93 57;
#X obj 540 214 osc~;
#X obj 1037 197 mtof;
#X obj 1046 240 osc~;
#X obj 676 363 min~;
#X obj 730 360 pink~;
#X obj 701 481 min~;
#X obj 548 511 *~;
#X obj 770 739 vsl 15 128 0 1 0 0 empty empty empty 0 -9 0 10 -262144
-1 -1 0 1;
#X obj 736 929 dac~;
#X obj 765 888 *~;
#X obj 728 743 vsl 15 128 0 1 0 0 empty empty empty 0 -9 0 10 -262144
-1 -1 0 1;
#X obj 720 891 *~;
#X obj 1173 111 tgl 15 0 empty empty empty 17 7 0 10 -262144 -1 -1
1 1;
#X obj 1173 141 metro 800;
#X obj 1172 175 random 80;
#X obj 1174 225 / 100;
#X obj 665 181 tgl 15 0 empty empty empty 17 7 0 10 -262144 -1 -1 1
1;
#X obj 664 209 metro 800;
#X obj 671 242 random 80;
#X obj 671 276 / 300;
#X obj 1054 389 *~;
#X obj 770 535 vcf~ 2;
#X obj 784 474 vline~;
#X msg 838 342 \$1 300;
#X obj 1187 331 min~;
#X obj 1243 331 pink~;
#X msg 1005 63 62;
#X msg 1077 61 52;
#X obj 1169 583 *~;
#X obj 666 655 delread~ tbt 120;
#X obj 1196 693 *~ 0.8;
#X obj 808 169 tgl 15 0 empty empty empty 17 7 0 10 -262144 -1 -1 1
1;
#X obj 810 199 metro 800;
#X obj 808 233 random 80;
#X obj 844 297 * 10;
#X obj 691 108 phasor~;
#X obj 838 104 phasor~;
#X obj 747 169 *~;
#X obj 893 811 *~;
#X obj 220 107 random 4;
#X obj 214 144 sel 0 1 2 3;
#X obj 227 40 tgl 15 0 empty empty empty 17 7 0 10 -262144 -1 -1 0
1;
#X msg 597 91 79;
#X msg 1136 59 72;
#X msg 941 65 43;
#X obj 1316 137 random 4;
#X obj 1331 59 tgl 15 0 empty empty empty 17 7 0 10 -262144 -1 -1 0
1;
#X obj 1323 181 sel 0 1 2 3;
#X msg 1629 291 0;
#X obj 49 239 main_magicgloves;
#X floatatom 15 430 5 0 0 0 - - -;
#X floatatom 95 424 5 0 0 0 - - -;
#X floatatom 312 434 5 0 0 0 - - -;
#X floatatom 166 434 5 0 0 0 - - -;
#X floatatom 239 435 5 0 0 0 - - -;
#X floatatom 389 429 5 0 0 0 - - -;
#X floatatom 8 713 5 0 0 0 - - -;
#X floatatom 76 715 5 0 0 0 - - -;
#X floatatom 149 710 5 0 0 0 - - -;
#X floatatom 221 708 5 0 0 0 - - -;
#X floatatom 302 704 5 0 0 0 - - -;
#X obj 44 362 unpack f f f;
#X obj 226 350 unpack f f f;
#X obj 47 635 unpack f f f f f;
#X obj 696 31 loadbang;
#X obj 120 803 max;
#X obj 68 801 min;
#X obj 274 788 max;
#X obj 222 786 min;
#X floatatom 64 870 5 0 0 0 - - -;
#X floatatom 136 867 5 0 0 0 - - -;
#X floatatom 231 866 5 0 0 0 - - -;
#X floatatom 320 859 5 0 0 0 - - -;
#X obj 145 531 min;
#X obj 87 534 max;
#X obj 222 74 metro;
#X obj 1326 93 metro;
#X obj 1158 401 lop~;
#X obj 1183 276 phasor~;
#X obj 667 315 phasor~;
#X obj 111 147 bng 15 250 50 0 empty empty empty 17 7 0 10 -262144
-1 -1;
#X obj 1492 122 bng 15 250 50 0 empty empty empty 17 7 0 10 -262144
-1 -1;
#X obj 672 410 lop~;
#X obj 1366 357 / 10;
#X obj 727 410 / 10;
#X obj 388 480 min;
#X obj 318 484 max;
#X floatatom 316 524 5 0 0 0 - - -;
#X floatatom 394 531 5 0 0 0 - - -;
#X obj 670 584 delwrite~ tbt 400;
#X obj 1091 520 delread~ tbt 400;
#X obj 998 803 delread~ ddd 600;
#X obj 992 762 delwrite~ ddd 600;
#X floatatom 1377 477 5 0 0 0 - - -;
#X obj 1377 424 * 20;
#X obj 1294 512 lop~;
#X obj 1528 572 moses 1400;
#X obj 1535 616 bng 15 250 50 0 empty empty empty 17 7 0 10 -262144
-1 -1;
#X floatatom 37 170 5 0 0 0 - - -;
#X floatatom 345 298 5 0 0 0 - - -;
#X obj 48 289 unpack f f;
#X obj 321 254 / 10000;
#X connect 0 0 4 0;
#X connect 1 0 0 0;
#X connect 2 0 0 0;
#X connect 3 0 0 0;
#X connect 4 0 9 0;
#X connect 4 0 10 0;
#X connect 5 0 6 0;
#X connect 6 0 24 0;
#X connect 6 0 9 1;
#X connect 7 0 86 0;
#X connect 8 0 7 1;
#X connect 9 0 25 0;
#X connect 9 0 93 0;
#X connect 10 0 15 0;
#X connect 11 0 13 1;
#X connect 13 0 12 1;
#X connect 14 0 15 1;
#X connect 15 0 12 0;
#X connect 16 0 17 0;
#X connect 17 0 18 0;
#X connect 18 0 19 0;
#X connect 20 0 21 0;
#X connect 21 0 22 0;
#X connect 22 0 23 0;
#X connect 24 0 13 0;
#X connect 25 0 42 1;
#X connect 25 0 93 0;
#X connect 26 0 25 1;
#X connect 27 0 26 0;
#X connect 28 0 81 0;
#X connect 29 0 28 1;
#X connect 30 0 5 0;
#X connect 31 0 5 0;
#X connect 32 0 34 0;
#X connect 33 0 15 0;
#X connect 34 0 93 0;
#X connect 35 0 36 0;
#X connect 36 0 37 0;
#X connect 38 0 27 0;
#X connect 39 0 41 0;
#X connect 40 0 41 1;
#X connect 41 0 25 0;
#X connect 41 0 96 0;
#X connect 42 0 13 0;
#X connect 42 0 15 0;
#X connect 43 0 44 0;
#X connect 44 0 1 0;
#X connect 44 1 2 0;
#X connect 44 2 3 0;
#X connect 44 4 46 0;
#X connect 45 0 79 0;
#X connect 46 0 0 0;
#X connect 47 0 5 0;
#X connect 48 0 5 0;
#X connect 49 0 51 0;
#X connect 50 0 80 0;
#X connect 51 0 47 0;
#X connect 51 1 31 0;
#X connect 51 2 30 0;
#X connect 51 4 48 0;
#X connect 52 0 4 0;
#X connect 52 0 5 0;
#X connect 53 0 104 0;
#X connect 53 1 65 0;
#X connect 53 2 66 0;
#X connect 53 3 67 0;
#X connect 54 0 78 0;
#X connect 55 0 78 1;
#X connect 56 0 90 1;
#X connect 56 0 89 1;
#X connect 57 0 77 0;
#X connect 58 0 77 1;
#X connect 59 0 90 0;
#X connect 59 0 89 0;
#X connect 61 0 69 0;
#X connect 61 0 70 0;
#X connect 62 0 69 1;
#X connect 62 0 70 1;
#X connect 63 0 72 0;
#X connect 63 0 71 0;
#X connect 63 0 100 0;
#X connect 64 0 72 1;
#X connect 64 0 71 1;
#X connect 65 0 54 0;
#X connect 65 1 55 0;
#X connect 65 2 56 0;
#X connect 66 0 57 0;
#X connect 66 1 58 0;
#X connect 66 2 59 0;
#X connect 67 0 60 0;
#X connect 67 1 61 0;
#X connect 67 2 62 0;
#X connect 67 3 63 0;
#X connect 67 4 64 0;
#X connect 68 0 20 0;
#X connect 68 0 35 0;
#X connect 68 0 16 0;
#X connect 69 0 74 0;
#X connect 70 0 73 0;
#X connect 71 0 76 0;
#X connect 72 0 75 0;
#X connect 73 0 87 0;
#X connect 74 0 80 1;
#X connect 75 0 88 0;
#X connect 75 0 40 0;
#X connect 76 0 79 1;
#X connect 76 0 39 0;
#X connect 77 0 82 0;
#X connect 78 0 83 0;
#X connect 79 0 43 0;
#X connect 79 0 84 0;
#X connect 80 0 49 0;
#X connect 80 0 85 0;
#X connect 81 0 24 1;
#X connect 82 0 28 0;
#X connect 82 0 9 1;
#X connect 82 0 99 0;
#X connect 83 0 7 0;
#X connect 83 0 9 0;
#X connect 86 0 10 1;
#X connect 87 0 81 1;
#X connect 88 0 86 1;
#X connect 89 0 92 0;
#X connect 90 0 91 0;
#X connect 91 0 98 0;
#X connect 92 0 38 0;
#X connect 94 0 32 0;
#X connect 94 0 13 0;
#X connect 95 0 42 0;
#X connect 97 0 99 1;
#X connect 98 0 97 0;
#X connect 99 0 32 1;
#X connect 100 0 101 0;
#X connect 104 0 102 0;
#X connect 104 1 105 0;
#X connect 105 0 103 0;
