#N canvas 0 94 1920 986 16;
#X obj 555 152 mtof;
#X msg 424 93 48;
#X msg 480 93 69;
#X msg 542 93 57;
#X obj 540 214 osc~;
#X obj 1037 197 mtof;
#X obj 1046 240 osc~;
#X obj 676 363 min~;
#X obj 730 360 pink~;
#X obj 701 481 min~;
#X obj 548 511 *~;
#X obj 770 739 vsl 15 128 0 1 0 0 empty empty empty 0 -9 0 10 -262144
-1 -1 0 1;
#X obj 736 929 dac~;
#X obj 765 888 *~;
#X obj 728 743 vsl 15 128 0 1 0 0 empty empty empty 0 -9 0 10 -262144
-1 -1 0 1;
#X obj 720 891 *~;
#X obj 1179 103 tgl 15 0 empty empty empty 17 7 0 10 -262144 -1 -1
0 1;
#X obj 1179 133 metro 800;
#X obj 1178 167 random 80;
#X obj 1180 217 / 100;
#X obj 665 181 tgl 15 0 empty empty empty 17 7 0 10 -262144 -1 -1 0
1;
#X obj 664 209 metro 800;
#X obj 671 242 random 80;
#X obj 671 276 / 300;
#X obj 1054 389 *~;
#X obj 770 535 vcf~ 2;
#X obj 784 474 vline~;
#X msg 808 320 \$1 300;
#X obj 667 315 phasor~ 0.3;
#X obj 1187 331 min~;
#X obj 1243 331 pink~;
#X obj 1171 274 phasor~ 0.2;
#X msg 1005 63 62;
#X msg 1077 61 52;
#X obj 712 577 delwrite~ tbt 200;
#X obj 1169 583 *~;
#X obj 1091 520 delread~ tbt 200;
#X obj 644 644 delread~ tbt 120;
#X obj 1196 693 *~ 0.8;
#X obj 1187 382 lop~ 40;
#X obj 1277 527 lop~ 40;
#X obj 672 410 lop~ 40;
#X obj 808 169 tgl 15 0 empty empty empty 17 7 0 10 -262144 -1 -1 0
1;
#X obj 810 199 metro 800;
#X obj 808 233 random 80;
#X obj 810 264 * 10;
#X obj 720 107 phasor~;
#X obj 823 111 phasor~;
#X obj 731 166 *~;
#X obj 995 869 delread~ ddd 600;
#X obj 811 143 delwrite~ ddd 600;
#X obj 1000 915 *~;
#X obj 218 109 random 4;
#X obj 214 144 sel 0 1 2 3;
#X obj 222 74 metro 500;
#X obj 227 40 tgl 15 0 empty empty empty 17 7 0 10 -262144 -1 -1 0
1;
#X msg 597 91 79;
#X msg 1136 59 72;
#X msg 941 65 43;
#X obj 1322 128 random 4;
#X obj 1331 59 tgl 15 0 empty empty empty 17 7 0 10 -262144 -1 -1 0
1;
#X obj 1322 206 sel 0 1 2 3;
#X obj 1326 93 metro 5000;
#X msg 441 305 0;
#X obj 49 239 main_magicgloves;
#X obj 48 289 unpack f f;
#X floatatom 7 431 5 0 0 0 - - -;
#X floatatom 66 437 5 0 0 0 - - -;
#X floatatom 79 411 5 0 0 0 - - -;
#X floatatom 122 488 5 0 0 0 - - -;
#X floatatom 196 487 5 0 0 0 - - -;
#X floatatom 265 482 5 0 0 0 - - -;
#X floatatom 40 778 5 0 0 0 - - -;
#X floatatom 108 780 5 0 0 0 - - -;
#X floatatom 181 775 5 0 0 0 - - -;
#X floatatom 253 773 5 0 0 0 - - -;
#X floatatom 331 773 5 0 0 0 - - -;
#X obj 44 362 unpack f f f;
#X obj 226 350 unpack f f f;
#X obj 45 663 unpack f f f f f;
#X connect 0 0 4 0;
#X connect 0 0 46 0;
#X connect 1 0 0 0;
#X connect 2 0 0 0;
#X connect 3 0 0 0;
#X connect 4 0 9 0;
#X connect 4 0 10 0;
#X connect 5 0 6 0;
#X connect 5 0 47 0;
#X connect 6 0 24 0;
#X connect 6 0 9 1;
#X connect 7 0 41 0;
#X connect 8 0 7 1;
#X connect 9 0 25 0;
#X connect 9 0 34 0;
#X connect 10 0 15 0;
#X connect 11 0 13 1;
#X connect 13 0 12 1;
#X connect 14 0 15 1;
#X connect 15 0 12 0;
#X connect 16 0 17 0;
#X connect 17 0 18 0;
#X connect 18 0 19 0;
#X connect 19 0 31 0;
#X connect 20 0 21 0;
#X connect 21 0 22 0;
#X connect 22 0 23 0;
#X connect 23 0 28 0;
#X connect 24 0 13 0;
#X connect 25 0 34 0;
#X connect 25 0 51 1;
#X connect 26 0 25 1;
#X connect 27 0 26 0;
#X connect 28 0 7 0;
#X connect 28 0 9 0;
#X connect 29 0 39 0;
#X connect 30 0 29 1;
#X connect 31 0 29 0;
#X connect 31 0 9 1;
#X connect 31 0 40 0;
#X connect 32 0 5 0;
#X connect 33 0 5 0;
#X connect 35 0 38 0;
#X connect 36 0 35 0;
#X connect 36 0 13 0;
#X connect 37 0 15 0;
#X connect 38 0 34 0;
#X connect 39 0 24 1;
#X connect 40 0 35 1;
#X connect 41 0 10 1;
#X connect 42 0 43 0;
#X connect 43 0 44 0;
#X connect 44 0 45 0;
#X connect 45 0 27 0;
#X connect 46 0 48 0;
#X connect 47 0 48 1;
#X connect 48 0 25 0;
#X connect 48 0 50 0;
#X connect 49 0 51 0;
#X connect 51 0 13 0;
#X connect 51 0 15 0;
#X connect 52 0 53 0;
#X connect 53 0 1 0;
#X connect 53 1 2 0;
#X connect 53 2 3 0;
#X connect 53 4 56 0;
#X connect 54 0 52 0;
#X connect 55 0 54 0;
#X connect 56 0 0 0;
#X connect 57 0 5 0;
#X connect 58 0 5 0;
#X connect 59 0 61 0;
#X connect 60 0 62 0;
#X connect 61 0 57 0;
#X connect 61 1 33 0;
#X connect 61 2 32 0;
#X connect 61 4 58 0;
#X connect 62 0 59 0;
#X connect 63 0 4 0;
#X connect 63 0 5 0;
#X connect 64 0 65 0;
#X connect 64 1 77 0;
#X connect 64 2 78 0;
#X connect 64 3 79 0;
#X connect 77 0 66 0;
#X connect 77 1 67 0;
#X connect 77 2 68 0;
#X connect 78 0 69 0;
#X connect 78 1 70 0;
#X connect 78 2 71 0;
#X connect 79 0 72 0;
#X connect 79 1 73 0;
#X connect 79 2 74 0;
#X connect 79 3 75 0;
#X connect 79 4 76 0;
