#N canvas 0 94 1920 986 16;
#X obj 553 160 mtof;
#X msg 404 66 48;
#X msg 472 64 69;
#X obj 540 214 osc~;
#X obj 1029 144 mtof;
#X obj 1066 214 osc~;
#X obj 665 375 min~;
#X obj 730 362 pink~;
#X obj 701 484 min~;
#X obj 548 511 *~;
#X obj 768 715 vsl 15 128 0 1 0 0 empty empty empty 0 -9 0 10 -262144
-1 -1 3810 1;
#X obj 720 928 dac~;
#X obj 765 888 *~;
#X obj 725 715 vsl 15 128 0 1 0 0 empty empty empty 0 -9 0 10 -262144
-1 -1 3810 1;
#X obj 720 888 *~;
#X obj 1173 113 tgl 15 0 empty empty empty 17 7 0 10 -262144 -1 -1
1 1;
#X obj 1173 144 metro 800;
#X obj 1173 184 random 80;
#X obj 1173 224 / 100;
#X obj 665 184 tgl 15 0 empty empty empty 17 7 0 10 -262144 -1 -1 1
1;
#X obj 665 215 metro 800;
#X obj 665 255 random 80;
#X obj 665 295 / 300;
#X obj 1054 389 *~;
#X obj 784 524 vcf~ 2;
#X obj 784 484 vline~;
#X msg 844 329 \$1 300;
#X obj 1183 329 min~;
#X obj 1243 331 pink~;
#X msg 1005 74 62;
#X msg 1077 74 52;
#X obj 1169 584 *~;
#X obj 666 655 delread~ tbt 120;
#X obj 1196 693 *~ 0.8;
#X obj 808 184 tgl 15 0 empty empty empty 17 7 0 10 -262144 -1 -1 1
1;
#X obj 808 215 metro 800;
#X obj 808 255 random 80;
#X obj 844 289 * 10;
#X obj 683 145 phasor~;
#X obj 841 129 phasor~;
#X obj 939 430 *~;
#X obj 893 801 *~;
#X obj 227 111 random 4;
#X obj 227 151 sel 0 1 2 3;
#X obj 227 40 tgl 15 0 empty empty empty 17 7 0 10 -262144 -1 -1 1
1;
#X msg 1136 74 72;
#X msg 941 74 43;
#X obj 1331 145 random 4;
#X obj 1331 74 tgl 15 0 empty empty empty 17 7 0 10 -262144 -1 -1 1
1;
#X obj 1331 185 sel 0 1 2 3;
#X obj 49 239 main_magicgloves;
#X floatatom 15 430 5 0 0 0 - - -;
#X floatatom 95 430 5 0 0 0 - - -;
#X floatatom 312 430 5 0 0 0 - - -;
#X floatatom 166 430 5 0 0 0 - - -;
#X floatatom 239 430 5 0 0 0 - - -;
#X floatatom 389 430 5 0 0 0 - - -;
#X floatatom 8 713 5 0 0 0 - - -;
#X floatatom 76 713 5 0 0 0 - - -;
#X floatatom 149 713 5 0 0 0 - - -;
#X floatatom 221 713 5 0 0 0 - - -;
#X floatatom 302 713 5 0 0 0 - - -;
#X obj 44 362 unpack f f f;
#X obj 226 362 unpack f f f;
#X obj 47 635 unpack f f f f f;
#X obj 677 40 loadbang;
#X obj 120 801 max;
#X obj 68 801 min;
#X obj 274 801 max;
#X obj 222 801 min;
#X floatatom 45 888 5 0 0 0 - - -;
#X floatatom 131 888 5 0 0 0 - - -;
#X floatatom 369 888 5 0 0 0 - - -;
#X floatatom 528 833 5 0 0 0 - - -;
#X obj 145 534 min;
#X obj 87 534 max;
#X obj 227 71 metro;
#X obj 1331 105 metro;
#X obj 1158 389 lop~;
#X obj 1183 289 phasor~;
#X obj 665 335 phasor~;
#X obj 161 113 bng 15 250 50 0 empty empty empty 17 7 0 10 -262144
-1 -1;
#X obj 1492 113 bng 15 250 50 0 empty empty empty 17 7 0 10 -262144
-1 -1;
#X obj 665 415 lop~;
#X obj 1366 362 / 10;
#X obj 734 430 / 10;
#X obj 389 469 min;
#X obj 312 469 max;
#X floatatom 316 534 5 0 0 0 - - -;
#X floatatom 394 534 5 0 0 0 - - -;
#X obj 992 802 delread~ ddd 600;
#X obj 992 762 delwrite~ ddd 600;
#X floatatom 1377 470 5 0 0 0 - - -;
#X obj 1377 430 * 20;
#X obj 1294 512 lop~;
#X floatatom 120 184 5 0 0 0 - - -;
#X floatatom 345 289 5 0 0 0 - - -;
#X obj 49 279 unpack f f;
#X obj 321 239 / 10000;
#X obj 1254 642 sel 0;
#X obj 1288 720 bng 15 250 50 0 empty empty empty 17 7 0 10 -262144
-1 -1;
#X floatatom 1606 655 5 0 0 0 - - -;
#X obj 1524 634 line;
#X floatatom 1525 683 5 0 0 0 - - -;
#X obj 1587 614 moses 1200;
#X obj 1606 694 spigot;
#X obj 1524 862 spigot;
#N canvas 414 265 654 609 one_bang 0;
#X obj 187 313 spigot;
#X msg 219 215 0;
#X obj 185 378 bng 15 250 50 0 empty empty empty 0 -6 0 8 -262144 -1
-1;
#X msg 280 229 1;
#X obj 156 104 bng 15 250 50 0 empty empty hit_me_fast! 0 -6 0 8 -262144
-1 -1;
#X obj 370 298 loadbang;
#X obj 275 280 tgl 15 0 empty empty empty 0 -6 0 8 -262144 -1 -1 0
1;
#X floatatom 360 120 5 0 0 0 - - -;
#X obj 173 154 t b a;
#X obj 108 39 inlet;
#X obj 175 461 outlet;
#X obj 298 164 del 500;
#X connect 0 0 2 0;
#X connect 1 0 0 1;
#X connect 1 0 6 0;
#X connect 2 0 10 0;
#X connect 3 0 0 1;
#X connect 3 0 6 0;
#X connect 4 0 8 0;
#X connect 5 0 3 0;
#X connect 7 0 11 1;
#X connect 8 0 1 0;
#X connect 8 0 11 0;
#X connect 8 1 0 0;
#X connect 9 0 4 0;
#X connect 11 0 3 0;
#X restore 1545 503 pd one_bang;
#X obj 1541 553 bng 15 250 50 0 empty empty empty 17 7 0 10 -262144
-1 -1;
#N canvas 414 265 654 609 one_bang 0;
#X obj 187 313 spigot;
#X msg 219 215 0;
#X obj 185 378 bng 15 250 50 0 empty empty empty 0 -6 0 8 -262144 -1
-1;
#X msg 280 229 1;
#X obj 156 104 bng 15 250 50 0 empty empty hit_me_fast! 0 -6 0 8 -262144
-1 -1;
#X obj 298 164 del 1000;
#X obj 370 298 loadbang;
#X obj 275 280 tgl 15 0 empty empty empty 0 -6 0 8 -262144 -1 -1 0
1;
#X floatatom 360 120 5 0 0 0 - - -;
#X obj 173 154 t b a;
#X obj 108 39 inlet;
#X obj 175 461 outlet;
#X connect 0 0 2 0;
#X connect 1 0 0 1;
#X connect 1 0 7 0;
#X connect 2 0 11 0;
#X connect 3 0 0 1;
#X connect 3 0 7 0;
#X connect 4 0 9 0;
#X connect 5 0 3 0;
#X connect 6 0 3 0;
#X connect 8 0 5 1;
#X connect 9 0 1 0;
#X connect 9 0 5 0;
#X connect 9 1 0 0;
#X connect 10 0 4 0;
#X restore 1581 762 pd one_bang;
#X obj 1525 722 sel 0;
#X obj 1525 762 bng 15 250 50 0 empty empty empty 17 7 0 10 -262144
-1 -1;
#X obj 1581 802 bng 15 250 50 0 empty empty empty 17 7 0 10 -262144
-1 -1;
#X obj 1581 833 tgl 15 0 empty empty empty 17 7 0 10 -262144 -1 -1
0 1;
#X obj 1624 584 tgl 15 0 empty empty empty 17 7 0 10 -262144 -1 -1
0 1;
#X obj 671 584 delwrite~ tbt 400;
#X obj 1091 534 delread~ tbt 400;
#X msg 795 74 0.3;
#X obj 176 928 * 3;
#X obj 1665 216 random 4095;
#X obj 1663 113 tgl 15 0 empty empty empty 17 7 0 10 -262144 -1 -1
1 1;
#X floatatom 1595 292 5 0 0 0 - - -;
#X floatatom 1795 665 5 0 0 0 - - -;
#X obj 1712 651 line;
#X msg 1712 594 0 1000;
#X floatatom 1714 693 5 0 0 0 - - -;
#X obj 1795 704 spigot;
#X obj 1713 872 spigot;
#N canvas 414 265 654 609 one_bang 0;
#X obj 187 313 spigot;
#X msg 219 215 0;
#X obj 185 378 bng 15 250 50 0 empty empty empty 0 -6 0 8 -262144 -1
-1;
#X msg 280 229 1;
#X obj 156 104 bng 15 250 50 0 empty empty hit_me_fast! 0 -6 0 8 -262144
-1 -1;
#X obj 298 164 del 1000;
#X obj 370 298 loadbang;
#X obj 275 280 tgl 15 0 empty empty empty 0 -6 0 8 -262144 -1 -1 0
1;
#X floatatom 360 120 5 0 0 0 - - -;
#X obj 173 154 t b a;
#X obj 108 39 inlet;
#X obj 175 461 outlet;
#X connect 0 0 2 0;
#X connect 1 0 0 1;
#X connect 1 0 7 0;
#X connect 2 0 11 0;
#X connect 3 0 0 1;
#X connect 3 0 7 0;
#X connect 4 0 9 0;
#X connect 5 0 3 0;
#X connect 6 0 3 0;
#X connect 8 0 5 1;
#X connect 9 0 1 0;
#X connect 9 0 5 0;
#X connect 9 1 0 0;
#X connect 10 0 4 0;
#X restore 1734 513 pd one_bang;
#X obj 1734 553 bng 15 250 50 0 empty empty empty 17 7 0 10 -262144
-1 -1;
#N canvas 414 265 654 609 one_bang 0;
#X obj 187 313 spigot;
#X msg 219 215 0;
#X obj 185 378 bng 15 250 50 0 empty empty empty 0 -6 0 8 -262144 -1
-1;
#X msg 280 229 1;
#X obj 156 104 bng 15 250 50 0 empty empty hit_me_fast! 0 -6 0 8 -262144
-1 -1;
#X obj 298 164 del 1000;
#X obj 370 298 loadbang;
#X obj 275 280 tgl 15 0 empty empty empty 0 -6 0 8 -262144 -1 -1 0
1;
#X floatatom 360 120 5 0 0 0 - - -;
#X obj 173 154 t b a;
#X obj 108 39 inlet;
#X obj 175 461 outlet;
#X connect 0 0 2 0;
#X connect 1 0 0 1;
#X connect 1 0 7 0;
#X connect 2 0 11 0;
#X connect 3 0 0 1;
#X connect 3 0 7 0;
#X connect 4 0 9 0;
#X connect 5 0 3 0;
#X connect 6 0 3 0;
#X connect 8 0 5 1;
#X connect 9 0 1 0;
#X connect 9 0 5 0;
#X connect 9 1 0 0;
#X connect 10 0 4 0;
#X restore 1772 773 pd one_bang;
#X obj 1714 732 sel 0;
#X obj 1714 772 bng 15 250 50 0 empty empty empty 17 7 0 10 -262144
-1 -1;
#X obj 1770 812 bng 15 250 50 0 empty empty empty 17 7 0 10 -262144
-1 -1;
#X obj 1770 843 tgl 15 0 empty empty empty 17 7 0 10 -262144 -1 -1
0 1;
#X obj 1813 594 tgl 15 0 empty empty empty 17 7 0 10 -262144 -1 -1
0 1;
#X obj 1776 624 moses 2000;
#X obj 1663 144 metro 700;
#X obj 1745 367 line;
#X floatatom 1775 435 5 0 0 0 - - -;
#X msg 1736 300 0 1000;
#X msg 1523 584 0 500;
#X msg 1439 245 71;
#X msg 1514 350 78;
#X msg 530 74 53;
#X floatatom 462 161 5 0 0 0 - - -;
#N canvas 691 357 486 385 creep 0;
#X obj 176 154 bng 15 250 50 0 empty empty empty 17 7 0 10 -262144
-1 -1;
#X obj 172 180 random 2;
#X obj 128 114 sel 48;
#X msg 165 246 40;
#X msg 215 248 43;
#X obj 175 212 sel 0 1;
#X obj 274 149 metro;
#X obj 276 185 bng 15 250 50 0 empty empty empty 17 7 0 10 -262144
-1 -1;
#N canvas 414 265 654 609 one_bang 0;
#X obj 187 313 spigot;
#X msg 219 215 0;
#X obj 185 378 bng 15 250 50 0 empty empty empty 0 -6 0 8 -262144 -1
-1;
#X msg 280 229 1;
#X obj 156 104 bng 15 250 50 0 empty empty hit_me_fast! 0 -6 0 8 -262144
-1 -1;
#X obj 370 298 loadbang;
#X obj 275 280 tgl 15 0 empty empty empty 0 -6 0 8 -262144 -1 -1 1
1;
#X floatatom 360 120 5 0 0 0 - - -;
#X obj 173 154 t b a;
#X obj 108 39 inlet;
#X obj 175 461 outlet;
#X obj 298 164 del 500;
#X connect 0 0 2 0;
#X connect 1 0 0 1;
#X connect 1 0 6 0;
#X connect 2 0 10 0;
#X connect 3 0 0 1;
#X connect 3 0 6 0;
#X connect 4 0 8 0;
#X connect 5 0 3 0;
#X connect 7 0 11 1;
#X connect 8 0 1 0;
#X connect 8 0 11 0;
#X connect 8 1 0 0;
#X connect 9 0 4 0;
#X connect 11 0 3 0;
#X restore 222 107 pd one_bang;
#X obj 83 70 inlet;
#X obj 173 329 outlet;
#X obj 363 100 inlet;
#X connect 0 0 8 0;
#X connect 1 0 5 0;
#X connect 2 0 0 0;
#X connect 3 0 10 0;
#X connect 4 0 10 0;
#X connect 5 0 3 0;
#X connect 5 1 4 0;
#X connect 6 0 1 0;
#X connect 6 0 7 0;
#X connect 8 0 6 0;
#X connect 9 0 2 0;
#X connect 11 0 6 1;
#X restore 1277 766 pd creep;
#N canvas 924 343 669 532 creepB 0;
#X obj 176 154 bng 15 250 50 0 empty empty empty 17 7 0 10 -262144
-1 -1;
#X obj 172 180 random 2;
#X obj 175 212 sel 0 1;
#X obj 274 149 metro;
#X obj 276 185 bng 15 250 50 0 empty empty empty 17 7 0 10 -262144
-1 -1;
#N canvas 414 265 654 609 one_bang 0;
#X obj 187 313 spigot;
#X msg 219 215 0;
#X obj 185 378 bng 15 250 50 0 empty empty empty 0 -6 0 8 -262144 -1
-1;
#X msg 280 229 1;
#X obj 156 104 bng 15 250 50 0 empty empty hit_me_fast! 0 -6 0 8 -262144
-1 -1;
#X obj 370 298 loadbang;
#X obj 275 280 tgl 15 0 empty empty empty 0 -6 0 8 -262144 -1 -1 1
1;
#X floatatom 360 120 5 0 0 0 - - -;
#X obj 173 154 t b a;
#X obj 108 39 inlet;
#X obj 175 461 outlet;
#X obj 298 164 del 500;
#X connect 0 0 2 0;
#X connect 1 0 0 1;
#X connect 1 0 6 0;
#X connect 2 0 10 0;
#X connect 3 0 0 1;
#X connect 3 0 6 0;
#X connect 4 0 8 0;
#X connect 5 0 3 0;
#X connect 7 0 11 1;
#X connect 8 0 1 0;
#X connect 8 0 11 0;
#X connect 8 1 0 0;
#X connect 9 0 4 0;
#X connect 11 0 3 0;
#X restore 222 107 pd one_bang;
#X obj 83 70 inlet;
#X obj 173 329 outlet;
#X obj 128 114 sel 69;
#X msg 165 246 72;
#X msg 215 248 76;
#X obj 185 57 inlet;
#X connect 0 0 5 0;
#X connect 1 0 2 0;
#X connect 2 0 9 0;
#X connect 2 1 10 0;
#X connect 3 0 1 0;
#X connect 3 0 4 0;
#X connect 5 0 3 0;
#X connect 6 0 8 0;
#X connect 8 0 0 0;
#X connect 9 0 7 0;
#X connect 10 0 7 0;
#X connect 11 0 3 1;
#X restore 1266 819 pd creepB;
#N canvas 878 405 550 465 creepC 0;
#X obj 176 154 bng 15 250 50 0 empty empty empty 17 7 0 10 -262144
-1 -1;
#X obj 172 180 random 2;
#X obj 175 212 sel 0 1;
#X obj 274 149 metro;
#X obj 276 185 bng 15 250 50 0 empty empty empty 17 7 0 10 -262144
-1 -1;
#N canvas 414 265 654 609 one_bang 0;
#X obj 187 313 spigot;
#X msg 219 215 0;
#X obj 185 378 bng 15 250 50 0 empty empty empty 0 -6 0 8 -262144 -1
-1;
#X msg 280 229 1;
#X obj 156 104 bng 15 250 50 0 empty empty hit_me_fast! 0 -6 0 8 -262144
-1 -1;
#X obj 370 298 loadbang;
#X obj 275 280 tgl 15 0 empty empty empty 0 -6 0 8 -262144 -1 -1 1
1;
#X floatatom 360 120 5 0 0 0 - - -;
#X obj 173 154 t b a;
#X obj 108 39 inlet;
#X obj 175 461 outlet;
#X obj 298 164 del 500;
#X connect 0 0 2 0;
#X connect 1 0 0 1;
#X connect 1 0 6 0;
#X connect 2 0 10 0;
#X connect 3 0 0 1;
#X connect 3 0 6 0;
#X connect 4 0 8 0;
#X connect 5 0 3 0;
#X connect 7 0 11 1;
#X connect 8 0 1 0;
#X connect 8 0 11 0;
#X connect 8 1 0 0;
#X connect 9 0 4 0;
#X connect 11 0 3 0;
#X restore 222 107 pd one_bang;
#X obj 83 70 inlet;
#X obj 173 329 outlet;
#X obj 185 57 inlet;
#X msg 165 246 57;
#X msg 215 248 60;
#X obj 128 114 sel 53;
#X connect 0 0 5 0;
#X connect 1 0 2 0;
#X connect 2 0 9 0;
#X connect 2 1 10 0;
#X connect 3 0 1 0;
#X connect 3 0 4 0;
#X connect 5 0 3 0;
#X connect 6 0 11 0;
#X connect 8 0 3 1;
#X connect 9 0 7 0;
#X connect 10 0 7 0;
#X connect 11 0 0 0;
#X restore 1271 866 pd creepC;
#N canvas 675 313 547 468 creepD 0;
#X obj 176 154 bng 15 250 50 0 empty empty empty 17 7 0 10 -262144
-1 -1;
#X obj 172 180 random 2;
#X obj 175 212 sel 0 1;
#X obj 274 149 metro;
#X obj 276 185 bng 15 250 50 0 empty empty empty 17 7 0 10 -262144
-1 -1;
#N canvas 414 265 654 609 one_bang 0;
#X obj 187 313 spigot;
#X msg 219 215 0;
#X obj 185 378 bng 15 250 50 0 empty empty empty 0 -6 0 8 -262144 -1
-1;
#X msg 280 229 1;
#X obj 156 104 bng 15 250 50 0 empty empty hit_me_fast! 0 -6 0 8 -262144
-1 -1;
#X obj 370 298 loadbang;
#X obj 275 280 tgl 15 0 empty empty empty 0 -6 0 8 -262144 -1 -1 1
1;
#X floatatom 360 120 5 0 0 0 - - -;
#X obj 173 154 t b a;
#X obj 108 39 inlet;
#X obj 175 461 outlet;
#X obj 298 164 del 500;
#X connect 0 0 2 0;
#X connect 1 0 0 1;
#X connect 1 0 6 0;
#X connect 2 0 10 0;
#X connect 3 0 0 1;
#X connect 3 0 6 0;
#X connect 4 0 8 0;
#X connect 5 0 3 0;
#X connect 7 0 11 1;
#X connect 8 0 1 0;
#X connect 8 0 11 0;
#X connect 8 1 0 0;
#X connect 9 0 4 0;
#X connect 11 0 3 0;
#X restore 222 107 pd one_bang;
#X obj 83 70 inlet;
#X obj 173 329 outlet;
#X obj 185 57 inlet;
#X obj 128 114 sel 62;
#X msg 165 246 65;
#X msg 215 247 69;
#X connect 0 0 5 0;
#X connect 1 0 2 0;
#X connect 2 0 10 0;
#X connect 2 1 11 0;
#X connect 3 0 1 0;
#X connect 3 0 4 0;
#X connect 5 0 3 0;
#X connect 6 0 9 0;
#X connect 8 0 3 1;
#X connect 9 0 0 0;
#X connect 10 0 7 0;
#X connect 11 0 7 0;
#X restore 1268 917 pd creepD;
#X msg 593 76 62;
#X connect 0 0 3 0;
#X connect 0 0 127 0;
#X connect 1 0 0 0;
#X connect 1 0 145 0;
#X connect 2 0 145 0;
#X connect 3 0 8 0;
#X connect 3 0 9 0;
#X connect 4 0 5 0;
#X connect 4 0 106 0;
#X connect 5 0 23 0;
#X connect 5 0 8 1;
#X connect 6 0 83 0;
#X connect 7 0 6 1;
#X connect 8 0 24 0;
#X connect 8 0 115 0;
#X connect 9 0 14 0;
#X connect 10 0 12 1;
#X connect 12 0 11 1;
#X connect 13 0 14 1;
#X connect 14 0 11 0;
#X connect 15 0 16 0;
#X connect 16 0 17 0;
#X connect 17 0 18 0;
#X connect 19 0 20 0;
#X connect 20 0 21 0;
#X connect 21 0 22 0;
#X connect 23 0 12 0;
#X connect 24 0 41 1;
#X connect 24 0 115 0;
#X connect 25 0 24 1;
#X connect 26 0 25 0;
#X connect 27 0 78 0;
#X connect 28 0 27 1;
#X connect 31 0 33 0;
#X connect 32 0 14 0;
#X connect 33 0 115 0;
#X connect 34 0 35 0;
#X connect 35 0 36 0;
#X connect 37 0 26 0;
#X connect 38 0 40 0;
#X connect 39 0 40 1;
#X connect 40 0 24 0;
#X connect 40 0 91 0;
#X connect 41 0 12 0;
#X connect 41 0 14 0;
#X connect 42 0 43 0;
#X connect 43 0 1 0;
#X connect 43 1 2 0;
#X connect 43 2 144 0;
#X connect 43 4 150 0;
#X connect 44 0 76 0;
#X connect 47 0 49 0;
#X connect 48 0 77 0;
#X connect 49 0 45 0;
#X connect 49 1 30 0;
#X connect 49 2 29 0;
#X connect 49 4 46 0;
#X connect 50 0 97 0;
#X connect 50 1 62 0;
#X connect 50 2 63 0;
#X connect 50 3 64 0;
#X connect 51 0 75 0;
#X connect 52 0 75 1;
#X connect 53 0 87 1;
#X connect 53 0 86 1;
#X connect 54 0 74 0;
#X connect 55 0 74 1;
#X connect 56 0 87 0;
#X connect 56 0 86 0;
#X connect 58 0 66 0;
#X connect 58 0 67 0;
#X connect 59 0 66 1;
#X connect 59 0 67 1;
#X connect 60 0 69 0;
#X connect 60 0 68 0;
#X connect 61 0 69 1;
#X connect 61 0 68 1;
#X connect 62 0 51 0;
#X connect 62 1 52 0;
#X connect 62 2 53 0;
#X connect 63 0 54 0;
#X connect 63 1 55 0;
#X connect 63 2 56 0;
#X connect 64 0 57 0;
#X connect 64 1 58 0;
#X connect 64 2 59 0;
#X connect 64 3 60 0;
#X connect 64 4 61 0;
#X connect 65 0 19 0;
#X connect 65 0 34 0;
#X connect 65 0 15 0;
#X connect 65 0 44 0;
#X connect 65 0 48 0;
#X connect 65 0 117 0;
#X connect 65 0 120 0;
#X connect 66 0 71 0;
#X connect 67 0 70 0;
#X connect 68 0 73 0;
#X connect 69 0 72 0;
#X connect 70 0 84 0;
#X connect 71 0 118 0;
#X connect 72 0 85 0;
#X connect 73 0 76 1;
#X connect 74 0 79 0;
#X connect 75 0 80 0;
#X connect 76 0 42 0;
#X connect 76 0 81 0;
#X connect 77 0 47 0;
#X connect 77 0 82 0;
#X connect 78 0 23 1;
#X connect 79 0 27 0;
#X connect 79 0 8 1;
#X connect 79 0 94 0;
#X connect 80 0 6 0;
#X connect 80 0 8 0;
#X connect 83 0 9 1;
#X connect 84 0 78 1;
#X connect 85 0 83 1;
#X connect 86 0 89 0;
#X connect 87 0 88 0;
#X connect 88 0 93 0;
#X connect 89 0 37 0;
#X connect 90 0 41 0;
#X connect 92 0 94 1;
#X connect 93 0 92 0;
#X connect 94 0 31 1;
#X connect 95 0 99 0;
#X connect 95 0 104 0;
#X connect 97 0 95 0;
#X connect 97 1 98 0;
#X connect 98 0 96 0;
#X connect 99 0 100 0;
#X connect 100 0 107 0;
#X connect 100 0 128 0;
#X connect 101 0 102 0;
#X connect 102 0 103 0;
#X connect 103 0 105 0;
#X connect 103 0 110 0;
#X connect 104 0 101 0;
#X connect 105 0 39 0;
#X connect 106 0 39 0;
#X connect 107 0 108 0;
#X connect 108 0 142 0;
#X connect 108 0 141 0;
#X connect 108 0 114 0;
#X connect 109 0 112 0;
#X connect 110 1 111 0;
#X connect 111 0 109 0;
#X connect 112 0 113 0;
#X connect 113 0 106 1;
#X connect 114 0 105 1;
#X connect 116 0 31 0;
#X connect 116 0 12 0;
#X connect 117 0 13 0;
#X connect 117 0 10 0;
#X connect 118 0 77 1;
#X connect 118 0 147 1;
#X connect 118 0 146 1;
#X connect 118 0 148 1;
#X connect 118 0 149 1;
#X connect 119 0 121 0;
#X connect 120 0 137 0;
#X connect 121 0 138 0;
#X connect 121 0 140 0;
#X connect 122 0 123 0;
#X connect 123 0 125 0;
#X connect 124 0 123 0;
#X connect 125 0 126 0;
#X connect 125 0 131 0;
#X connect 126 0 38 0;
#X connect 127 0 38 0;
#X connect 128 0 129 0;
#X connect 129 0 124 0;
#X connect 129 0 135 0;
#X connect 129 0 143 0;
#X connect 130 0 133 0;
#X connect 131 1 132 0;
#X connect 132 0 130 0;
#X connect 133 0 134 0;
#X connect 134 0 127 1;
#X connect 135 0 126 1;
#X connect 136 0 122 0;
#X connect 137 0 119 0;
#X connect 138 0 139 0;
#X connect 139 0 136 0;
#X connect 140 0 138 0;
#X connect 141 0 102 0;
#X connect 142 0 0 0;
#X connect 143 0 4 0;
#X connect 144 0 145 0;
#X connect 145 0 146 0;
#X connect 145 0 147 0;
#X connect 145 0 148 0;
#X connect 145 0 149 0;
#X connect 146 0 4 0;
#X connect 147 0 4 0;
#X connect 148 0 4 0;
#X connect 149 0 4 0;
#X connect 150 0 145 0;
