#N canvas 67 192 1910 723 10;
#X obj 93 640 diode~;
#X obj 93 581 harmgen~, f 110;
#X obj 526 930 dac~;
#X obj 93 487 cycle~;
#X obj 539 828 hsl 128 15 0.01 1 0 0 empty empty empty -2 -8 0 10 -262144
-1 -1 1700 1;
#X obj 526 848 *~;
#X obj 585 930 tabwrite~ osc;
#X obj 585 848 tgl 15 0 empty empty empty 17 7 0 10 -262144 -1 -1 1
1;
#N canvas 0 0 450 300 (subpatch) 0;
#X array osc 2756 float 0;
#X coords 0 1 2755 -1 400 100 1;
#X restore 771 843 graph;
#X obj 585 879 metro 100;
#X obj 126 614 hsl 128 15 0.01 2.5 0 0 empty empty empty -2 -8 0 10
-262144 -1 -1 2600 1;
#X obj 156 336 vsnapshot~;
#X obj 156 309 cycle~;
#X msg 34 312 bang;
#X obj 125 17 tgl 15 0 empty empty empty 17 7 0 10 -262144 -1 -1 0
1;
#X obj 83 463 mtof;
#X obj 156 381 +;
#X obj 156 427 *;
#X floatatom 171 401 5 0 0 0 - - -;
#X floatatom 171 355 5 0 0 0 - - -;
#X obj 222 336 vsnapshot~;
#X obj 222 309 cycle~;
#X obj 222 381 +;
#X obj 222 427 *;
#X floatatom 237 401 5 0 0 0 - - -;
#X floatatom 237 355 5 0 0 0 - - -;
#X obj 288 286 vsnapshot~;
#X obj 288 309 cycle~;
#X obj 288 381 +;
#X obj 288 427 *;
#X floatatom 303 401 5 0 0 0 - - -;
#X floatatom 303 355 5 0 0 0 - - -;
#X obj 354 336 vsnapshot~;
#X obj 354 309 cycle~;
#X obj 354 381 +;
#X obj 354 427 *;
#X floatatom 369 401 5 0 0 0 - - -;
#X floatatom 369 355 5 0 0 0 - - -;
#X obj 420 336 vsnapshot~;
#X obj 420 309 cycle~;
#X obj 420 381 +;
#X obj 420 427 *;
#X floatatom 435 401 5 0 0 0 - - -;
#X floatatom 435 355 5 0 0 0 - - -;
#X obj 486 336 vsnapshot~;
#X obj 486 309 cycle~;
#X obj 486 381 +;
#X obj 486 427 *;
#X floatatom 501 401 5 0 0 0 - - -;
#X floatatom 501 355 5 0 0 0 - - -;
#X obj 552 336 vsnapshot~;
#X obj 552 309 cycle~;
#X obj 552 381 +;
#X obj 552 427 *;
#X floatatom 567 401 5 0 0 0 - - -;
#X floatatom 567 355 5 0 0 0 - - -;
#X obj 618 336 vsnapshot~;
#X obj 618 309 cycle~;
#X obj 618 381 +;
#X obj 618 427 *;
#X floatatom 633 401 5 0 0 0 - - -;
#X floatatom 633 355 5 0 0 0 - - -;
#X obj 684 336 vsnapshot~;
#X obj 684 309 cycle~;
#X obj 684 381 +;
#X obj 684 427 *;
#X floatatom 699 401 5 0 0 0 - - -;
#X floatatom 699 355 5 0 0 0 - - -;
#X obj 750 336 vsnapshot~;
#X obj 750 309 cycle~;
#X obj 750 381 +;
#X obj 750 427 *;
#X floatatom 765 401 5 0 0 0 - - -;
#X floatatom 765 355 5 0 0 0 - - -;
#X obj 125 42 metro 0;
#X msg 454 270 0;
#X text 685 828 Master;
#X text 926 814 Oscilloscope;
#X text 802 401 Gain;
#X text 802 355 Offset;
#X text 778 204 Mod Freq;
#X obj 750 183 vsl 25 100 0 20 0 0 empty empty empty 0 -9 0 10 -262144
-1 -1 7800 1;
#X msg 454 118 0;
#X obj 156 183 vsl 25 100 0 20 0 0 empty empty empty 0 -9 0 10 -262144
-1 -1 6700 1;
#X obj 223 183 vsl 25 100 0 20 0 0 empty empty empty 0 -9 0 10 -262144
-1 -1 6600 1;
#X obj 290 183 vsl 25 100 0 20 0 0 empty empty empty 0 -9 0 10 -262144
-1 -1 6700 1;
#X obj 357 183 vsl 25 100 0 20 0 0 empty empty empty 0 -9 0 10 -262144
-1 -1 9900 1;
#X obj 422 183 vsl 25 100 0 20 0 0 empty empty empty 0 -9 0 10 -262144
-1 -1 5700 1;
#X obj 489 183 vsl 25 100 0 20 0 0 empty empty empty 0 -9 0 10 -262144
-1 -1 7000 1;
#X obj 555 183 vsl 25 100 0 20 0 0 empty empty empty 0 -9 0 10 -262144
-1 -1 6900 1;
#X obj 622 183 vsl 25 100 0 20 0 0 empty empty empty 0 -9 0 10 -262144
-1 -1 8000 1;
#X obj 685 183 vsl 25 100 0 20 0 0 empty empty empty 0 -9 0 10 -262144
-1 -1 4600 1;
#X obj 750 455 vsl 25 100 -1 1 0 0 empty empty empty 0 -9 0 10 -262144
-1 -1 6450 1;
#X obj 156 455 vsl 25 100 -1 1 0 0 empty empty empty 0 -9 0 10 -262144
-1 -1 4950 1;
#X obj 222 455 vsl 25 100 -1 1 0 0 empty empty empty 0 -9 0 10 -262144
-1 -1 4950 1;
#X obj 288 455 vsl 25 100 -1 1 0 0 empty empty empty 0 -9 0 10 -262144
-1 -1 4950 1;
#X obj 354 455 vsl 25 100 -1 1 0 0 empty empty empty 0 -9 0 10 -262144
-1 -1 6750 1;
#X obj 420 455 vsl 25 100 -1 1 0 0 empty empty empty 0 -9 0 10 -262144
-1 -1 6450 1;
#X obj 486 455 vsl 25 100 -1 1 0 0 empty empty empty 0 -9 0 10 -262144
-1 -1 6150 1;
#X obj 552 455 vsl 25 100 -1 1 0 0 empty empty empty 0 -9 0 10 -262144
-1 -1 6650 1;
#X obj 618 455 vsl 25 100 -1 1 0 0 empty empty empty 0 -9 0 10 -262144
-1 -1 6450 1;
#X obj 684 455 vsl 25 100 -1 1 0 0 empty empty empty 0 -9 0 10 -262144
-1 -1 7150 1;
#X text 610 848 Oscilloscope ON;
#X obj 125 69 s snaptrig;
#X obj 34 277 r snaptrig;
#X text 153 17 Mod ON;
#X obj 965 569 vsl 25 100 0 500 0 0 empty empty empty 0 -9 0 10 -262144
-1 -1 4200 1;
#X obj 808 569 vsl 25 100 0 1 0 0 empty empty empty 0 -9 0 10 -262144
-1 -1 3500 1;
#X obj 874 569 vsl 25 100 0 1 0 0 empty empty empty 0 -9 0 10 -262144
-1 -1 4700 1;
#X text 963 60 Reset Synth;
#X msg 934 60 0;
#X obj 1127 639 diode~;
#X obj 1127 580 harmgen~, f 110;
#X obj 1127 536 cycle~;
#X obj 1201 672 *~;
#X obj 1160 613 hsl 128 15 0.01 2.5 0 0 empty empty empty -2 -8 0 10
-262144 -1 -1 0 1;
#X obj 1190 335 vsnapshot~;
#X obj 1190 308 cycle~;
#X msg 1068 311 bang;
#X obj 1190 380 +;
#X obj 1190 426 *;
#X floatatom 1205 400 5 0 0 0 - - -;
#X floatatom 1205 354 5 0 0 0 - - -;
#X obj 1256 335 vsnapshot~;
#X obj 1256 308 cycle~;
#X obj 1256 380 +;
#X obj 1256 426 *;
#X floatatom 1271 400 5 0 0 0 - - -;
#X floatatom 1271 354 5 0 0 0 - - -;
#X obj 1322 335 vsnapshot~;
#X obj 1322 308 cycle~;
#X obj 1322 380 +;
#X obj 1322 426 *;
#X floatatom 1337 400 5 0 0 0 - - -;
#X floatatom 1337 354 5 0 0 0 - - -;
#X obj 1388 335 vsnapshot~;
#X obj 1388 308 cycle~;
#X obj 1388 380 +;
#X obj 1388 426 *;
#X floatatom 1403 400 5 0 0 0 - - -;
#X floatatom 1403 354 5 0 0 0 - - -;
#X obj 1454 335 vsnapshot~;
#X obj 1454 308 cycle~;
#X obj 1454 380 +;
#X obj 1454 426 *;
#X floatatom 1469 400 5 0 0 0 - - -;
#X floatatom 1469 354 5 0 0 0 - - -;
#X obj 1520 335 vsnapshot~;
#X obj 1520 308 cycle~;
#X obj 1520 380 +;
#X obj 1520 426 *;
#X floatatom 1535 400 5 0 0 0 - - -;
#X floatatom 1535 354 5 0 0 0 - - -;
#X obj 1586 335 vsnapshot~;
#X obj 1586 308 cycle~;
#X obj 1586 380 +;
#X obj 1586 426 *;
#X floatatom 1601 400 5 0 0 0 - - -;
#X floatatom 1601 354 5 0 0 0 - - -;
#X obj 1652 335 vsnapshot~;
#X obj 1652 308 cycle~;
#X obj 1652 380 +;
#X obj 1652 426 *;
#X floatatom 1667 400 5 0 0 0 - - -;
#X floatatom 1667 354 5 0 0 0 - - -;
#X obj 1718 335 vsnapshot~;
#X obj 1718 308 cycle~;
#X obj 1718 380 +;
#X obj 1718 426 *;
#X floatatom 1733 400 5 0 0 0 - - -;
#X floatatom 1733 354 5 0 0 0 - - -;
#X obj 1784 335 vsnapshot~;
#X obj 1784 308 cycle~;
#X obj 1784 380 +;
#X obj 1784 426 *;
#X floatatom 1799 400 5 0 0 0 - - -;
#X floatatom 1800 355 5 0 0 0 - - -;
#X msg 1488 269 0;
#X text 1836 400 Gain;
#X text 1836 354 Offset;
#X text 1812 203 Mod Freq;
#X obj 1784 183 vsl 25 100 0 20 0 0 empty empty empty 0 -9 0 10 -262144
-1 -1 0 1;
#X msg 1488 118 0;
#X obj 1190 183 vsl 25 100 0 20 0 0 empty empty empty 0 -9 0 10 -262144
-1 -1 0 1;
#X obj 1257 183 vsl 25 100 0 20 0 0 empty empty empty 0 -9 0 10 -262144
-1 -1 0 1;
#X obj 1324 183 vsl 25 100 0 20 0 0 empty empty empty 0 -9 0 10 -262144
-1 -1 0 1;
#X obj 1391 183 vsl 25 100 0 20 0 0 empty empty empty 0 -9 0 10 -262144
-1 -1 0 1;
#X obj 1456 183 vsl 25 100 0 20 0 0 empty empty empty 0 -9 0 10 -262144
-1 -1 0 1;
#X obj 1523 183 vsl 25 100 0 20 0 0 empty empty empty 0 -9 0 10 -262144
-1 -1 0 1;
#X obj 1589 183 vsl 25 100 0 20 0 0 empty empty empty 0 -9 0 10 -262144
-1 -1 0 1;
#X obj 1656 183 vsl 25 100 0 20 0 0 empty empty empty 0 -9 0 10 -262144
-1 -1 0 1;
#X obj 1719 183 vsl 25 100 0 20 0 0 empty empty empty 0 -9 0 10 -262144
-1 -1 7000 1;
#X obj 1784 454 vsl 25 100 -1 1 0 0 empty empty empty 0 -9 0 10 -262144
-1 -1 7450 1;
#X obj 1190 454 vsl 25 100 -1 1 0 0 empty empty empty 0 -9 0 10 -262144
-1 -1 5850 1;
#X obj 1256 454 vsl 25 100 -1 1 0 0 empty empty empty 0 -9 0 10 -262144
-1 -1 6450 1;
#X obj 1322 454 vsl 25 100 -1 1 0 0 empty empty empty 0 -9 0 10 -262144
-1 -1 6050 1;
#X obj 1388 454 vsl 25 100 -1 1 0 0 empty empty empty 0 -9 0 10 -262144
-1 -1 5650 1;
#X obj 1454 454 vsl 25 100 -1 1 0 0 empty empty empty 0 -9 0 10 -262144
-1 -1 5650 1;
#X obj 1520 454 vsl 25 100 -1 1 0 0 empty empty empty 0 -9 0 10 -262144
-1 -1 6050 1;
#X obj 1586 454 vsl 25 100 -1 1 0 0 empty empty empty 0 -9 0 10 -262144
-1 -1 6850 1;
#X obj 1652 454 vsl 25 100 -1 1 0 0 empty empty empty 0 -9 0 10 -262144
-1 -1 6250 1;
#X obj 1718 454 vsl 25 100 -1 1 0 0 empty empty empty 0 -9 0 10 -262144
-1 -1 5850 1;
#X obj 1068 276 r snaptrig;
#X obj 1128 697 *~;
#X obj 1216 642 r mod;
#X obj 94 697 *~;
#X text 1302 613 Voodoo;
#X obj 965 687 s mod;
#X obj 16 43 stripnote;
#X obj 16 13 notein 1, f 9;
#X obj 16 70 s midi;
#X obj 51 374 r midi;
#X obj 83 426 +;
#X floatatom 98 397 5 0 0 0 - - -;
#X text 91 377 Transpose;
#X obj 108 672 r car2dac;
#X obj 1142 672 r mod2dac;
#X obj 874 687 s mod2dac;
#X obj 808 687 s car2dac;
#X obj 1201 704 s~ 2car;
#X text 82 28 MIDI;
#X obj 167 672 *~;
#X obj 167 704 s~ 2mod;
#X obj 182 642 r crossmod;
#X obj 93 513 +~;
#X obj 108 488 r~ 2car;
#X obj 1127 513 +~;
#X obj 1142 488 r~ 2mod;
#X obj 1031 569 vsl 25 100 0 500 0 0 empty empty empty 0 -9 0 10 -262144
-1 -1 3300 1;
#X obj 1031 684 s crossmod;
#X text 797 703 Carrier;
#X text 890 703 Modulator;
#X text 840 703 <To DAC>;
#X text 957 703 Modulator & XMOD Feedback;
#X obj 461 808 r~ daca;
#X obj 94 727 s~ daca;
#X obj 1128 727 s~ dacb;
#X obj 510 808 r~ dacb;
#X text 268 614 Voodoo;
#X obj 84 488 +;
#X obj 117 444 vsl 12 25 -1 1 0 0 empty empty empty 0 -9 0 10 -262144
-1 -1 1200 1;
#X text 107 420 Detune;
#X obj 1117 462 mtof;
#X obj 1085 373 r midi;
#X obj 1117 425 +;
#X floatatom 1132 396 5 0 0 0 - - -;
#X text 1125 376 Transpose;
#X obj 1118 487 +;
#X obj 1151 443 vsl 12 25 -1 1 0 0 empty empty empty 0 -9 0 10 -262144
-1 -1 1200 1;
#X text 1141 419 Detune;
#X obj 934 21 loadbang;
#X text 1470 604 MODULATOR;
#X text 432 604 CARRIER;
#X text 1439 729 NOTES FOR THIS PATCH:;
#X text 1337 860 OFFSET AND GAIN CONTROL MIN/MAX FUNCTIONALITY. FOR
EXAMPLE A LOWER GAIN REQUIRES A HIGHER OFFSET TO APPLY MODULATION TO
A LIMITED AMPLITUDE RANGE. THIS IS SCALED FROM -1 TO +1., f 62;
#X text 1337 924 https://www.youtube.com/user/systematika, f 62;
#X text 1337 905 GET YOUR NOISE ON :-) - JM, f 62;
#X text 1337 943 jmoorebnc@gmail.com, f 62;
#X text 1337 962 https://www.facebook.com/TEKSCIENZE;
#X text 1337 757 THIS IS A TWO OPERATOR FM OSCILLATOR DESIGN WITH CROSS
MODULATION THAT CAN ALSO FUNCTION AS AN ADDITIVE SYNTH SINCE IT USES
SINE HARMONIC TABLES TO DETERMINE WAVESHAPE.;
#X text 1337 802 THE SINE HARMONICS ARE CONTROLLED BY THREE PARAMETERS:
MOD FREQUENCY \, OFFSET \, AND GAIN. MOD FREQUENCY CONTROLS THE LFOS
CONNECTED TO EACH HARMONIC. THIS ALLOWS TO MORPH WAVESHAPES OVER TIME.
;
#N canvas 0 192 1711 868 keytomidi 0;
#X floatatom 28 23 5 0 0 0 - - -;
#X obj 950 -12 keyup;
#X obj 1141 639 notein;
#X floatatom 1140 676 5 0 0 0 - - -;
#X floatatom 934 17 5 0 0 0 - - -;
#X obj 930 41 bng 15 250 50 0 empty empty empty 17 7 0 10 -262144 -1
-1;
#X obj 45 56 bng 15 250 50 0 empty empty empty 17 7 0 10 -262144 -1
-1;
#X obj 113 56 bng 15 250 50 0 empty empty empty 17 7 0 10 -262144 -1
-1;
#X msg 15 131 122;
#X msg 37 113 115;
#X msg 48 132 120;
#X msg 63 113 100;
#X msg 79 131 99;
#X msg 113 130 118;
#X msg 174 131 110;
#X msg 202 112 106;
#X msg 208 131 109;
#X obj 591 -29 vradio 15 1 0 5 empty empty empty 0 -8 0 10 -262144
-1 -1 3;
#X obj 494 61 sel 0 1 2 3 4;
#X msg 479 80 24;
#X msg 495 86 12;
#X msg 511 93 0;
#X msg 522 99 -12;
#X msg 544 106 -24;
#X obj 486 128 + 0;
#X obj 14 281 bng 15 250 50 0 empty empty empty 17 7 0 10 -262144 -1
-1;
#X obj 21 264 bng 15 250 50 0 empty empty empty 17 7 0 10 -262144 -1
-1;
#X obj 31 281 bng 15 250 50 0 empty empty empty 17 7 0 10 -262144 -1
-1;
#X obj 39 264 bng 15 250 50 0 empty empty empty 17 7 0 10 -262144 -1
-1;
#X obj 47 281 bng 15 250 50 0 empty empty empty 17 7 0 10 -262144 -1
-1;
#X obj 65 281 bng 15 250 50 0 empty empty empty 17 7 0 10 -262144 -1
-1;
#X obj 74 264 bng 15 250 50 0 empty empty empty 17 7 0 10 -262144 -1
-1;
#X obj 83 281 bng 15 250 50 0 empty empty empty 17 7 0 10 -262144 -1
-1;
#X obj 96 264 bng 15 250 50 0 empty empty empty 17 7 0 10 -262144 -1
-1;
#X obj 102 281 bng 15 250 50 0 empty empty empty 17 7 0 10 -262144
-1 -1;
#X obj 116 264 bng 15 250 50 0 empty empty empty 17 7 0 10 -262144
-1 -1;
#X obj 124 281 bng 15 250 50 0 empty empty empty 17 7 0 10 -262144
-1 -1;
#X obj 145 281 bng 15 250 50 0 empty empty empty 17 7 0 10 -262144
-1 -1;
#X obj 160 264 bng 15 250 50 0 empty empty empty 17 7 0 10 -262144
-1 -1;
#X obj 167 281 bng 15 250 50 0 empty empty empty 17 7 0 10 -262144
-1 -1;
#X obj 183 265 bng 15 250 50 0 empty empty empty 17 7 0 10 -262144
-1 -1;
#X obj 193 280 bng 15 250 50 0 empty empty empty 17 7 0 10 -262144
-1 -1;
#X msg 15 328 48;
#X msg 22 312 49;
#X msg 39 328 50;
#X msg 49 313 51;
#X msg 65 329 52;
#X msg 169 112 104;
#X obj 43 77 select 122 115 120 100 99 118 103 98 104 110 106 109 44
108 46 59 47;
#X msg 135 111 103;
#X msg 145 131 98;
#X msg 269 112 108;
#X msg 251 131 44;
#X msg 276 131 46;
#X msg 296 111 59;
#X msg 304 131 47;
#X msg 92 330 53;
#X msg 101 312 54;
#X msg 118 331 55;
#X msg 126 313 56;
#X msg 144 332 57;
#X msg 161 315 58;
#X msg 171 333 59;
#X msg 203 333 60;
#X msg 215 315 61;
#X msg 230 333 62;
#X msg 245 315 63;
#X msg 257 332 64;
#X obj 25 362 s note;
#X obj 433 97 r note;
#X obj 404 188 s noteoct;
#X msg 862 129 122;
#X msg 884 111 115;
#X msg 895 130 120;
#X msg 910 111 100;
#X msg 926 129 99;
#X msg 960 128 118;
#X msg 1021 129 110;
#X msg 1049 110 106;
#X msg 1055 129 109;
#X obj 861 279 bng 15 250 50 0 empty empty empty 17 7 0 10 -262144
-1 -1;
#X obj 868 262 bng 15 250 50 0 empty empty empty 17 7 0 10 -262144
-1 -1;
#X obj 878 279 bng 15 250 50 0 empty empty empty 17 7 0 10 -262144
-1 -1;
#X obj 886 262 bng 15 250 50 0 empty empty empty 17 7 0 10 -262144
-1 -1;
#X obj 894 279 bng 15 250 50 0 empty empty empty 17 7 0 10 -262144
-1 -1;
#X obj 912 279 bng 15 250 50 0 empty empty empty 17 7 0 10 -262144
-1 -1;
#X obj 921 262 bng 15 250 50 0 empty empty empty 17 7 0 10 -262144
-1 -1;
#X obj 930 279 bng 15 250 50 0 empty empty empty 17 7 0 10 -262144
-1 -1;
#X obj 943 262 bng 15 250 50 0 empty empty empty 17 7 0 10 -262144
-1 -1;
#X obj 949 279 bng 15 250 50 0 empty empty empty 17 7 0 10 -262144
-1 -1;
#X obj 963 262 bng 15 250 50 0 empty empty empty 17 7 0 10 -262144
-1 -1;
#X obj 971 279 bng 15 250 50 0 empty empty empty 17 7 0 10 -262144
-1 -1;
#X obj 992 279 bng 15 250 50 0 empty empty empty 17 7 0 10 -262144
-1 -1;
#X obj 1007 262 bng 15 250 50 0 empty empty empty 17 7 0 10 -262144
-1 -1;
#X obj 1014 279 bng 15 250 50 0 empty empty empty 17 7 0 10 -262144
-1 -1;
#X obj 1030 263 bng 15 250 50 0 empty empty empty 17 7 0 10 -262144
-1 -1;
#X obj 1040 278 bng 15 250 50 0 empty empty empty 17 7 0 10 -262144
-1 -1;
#X msg 862 326 48;
#X msg 869 310 49;
#X msg 886 326 50;
#X msg 896 311 51;
#X msg 912 327 52;
#X msg 1016 110 104;
#X obj 890 75 select 122 115 120 100 99 118 103 98 104 110 106 109
44 108 46 59 47;
#X msg 982 109 103;
#X msg 992 129 98;
#X msg 1116 110 108;
#X msg 1098 129 44;
#X msg 1123 129 46;
#X msg 1143 109 59;
#X msg 1151 129 47;
#X msg 939 328 53;
#X msg 948 310 54;
#X msg 965 329 55;
#X msg 973 311 56;
#X msg 991 330 57;
#X msg 1008 313 58;
#X msg 1018 331 59;
#X msg 1050 331 60;
#X msg 1062 313 61;
#X msg 1077 331 62;
#X msg 1092 313 63;
#X msg 1104 330 64;
#X obj 33 429 bng 15 250 50 0 empty empty empty 17 7 0 10 -262144 -1
-1;
#X obj 90 431 bng 15 250 50 0 empty empty empty 17 7 0 10 -262144 -1
-1;
#X msg -8 506 122;
#X msg 14 488 115;
#X msg 25 507 120;
#X msg 40 488 100;
#X msg 56 506 99;
#X msg 90 505 118;
#X msg 151 506 110;
#X msg 179 487 106;
#X msg 185 506 109;
#X obj -9 656 bng 15 250 50 0 empty empty empty 17 7 0 10 -262144 -1
-1;
#X obj -2 639 bng 15 250 50 0 empty empty empty 17 7 0 10 -262144 -1
-1;
#X obj 8 656 bng 15 250 50 0 empty empty empty 17 7 0 10 -262144 -1
-1;
#X obj 16 639 bng 15 250 50 0 empty empty empty 17 7 0 10 -262144 -1
-1;
#X obj 24 656 bng 15 250 50 0 empty empty empty 17 7 0 10 -262144 -1
-1;
#X obj 42 656 bng 15 250 50 0 empty empty empty 17 7 0 10 -262144 -1
-1;
#X obj 51 639 bng 15 250 50 0 empty empty empty 17 7 0 10 -262144 -1
-1;
#X obj 60 656 bng 15 250 50 0 empty empty empty 17 7 0 10 -262144 -1
-1;
#X obj 73 639 bng 15 250 50 0 empty empty empty 17 7 0 10 -262144 -1
-1;
#X obj 79 656 bng 15 250 50 0 empty empty empty 17 7 0 10 -262144 -1
-1;
#X obj 93 639 bng 15 250 50 0 empty empty empty 17 7 0 10 -262144 -1
-1;
#X obj 101 656 bng 15 250 50 0 empty empty empty 17 7 0 10 -262144
-1 -1;
#X obj 122 656 bng 15 250 50 0 empty empty empty 17 7 0 10 -262144
-1 -1;
#X obj 137 639 bng 15 250 50 0 empty empty empty 17 7 0 10 -262144
-1 -1;
#X obj 144 656 bng 15 250 50 0 empty empty empty 17 7 0 10 -262144
-1 -1;
#X obj 160 640 bng 15 250 50 0 empty empty empty 17 7 0 10 -262144
-1 -1;
#X obj 170 655 bng 15 250 50 0 empty empty empty 17 7 0 10 -262144
-1 -1;
#X msg 146 487 104;
#X msg 112 486 103;
#X msg 122 506 98;
#X msg 246 487 108;
#X msg 228 506 44;
#X msg 253 506 46;
#X msg 273 486 59;
#X msg 281 506 47;
#X obj 20 451 select 113 50 119 51 101 114 53 116 54 121 55 117 105
57 111 48 112 91 61 93;
#X msg 321 490 61;
#X msg 338 506 93;
#X msg 311 506 91;
#X floatatom 21 408 5 0 0 0 - - -;
#X obj 190 655 bng 15 250 50 0 empty empty empty 17 7 0 10 -262144
-1 -1;
#X obj 200 639 bng 15 250 50 0 empty empty empty 17 7 0 10 -262144
-1 -1;
#X obj 214 655 bng 15 250 50 0 empty empty empty 17 7 0 10 -262144
-1 -1;
#X msg -8 703 60;
#X msg -1 687 61;
#X msg 16 703 62;
#X msg 26 688 63;
#X msg 42 704 64;
#X msg 69 705 65;
#X msg 78 687 66;
#X msg 95 706 67;
#X msg 103 688 68;
#X msg 121 707 69;
#X msg 138 690 70;
#X msg 148 708 71;
#X msg 180 708 72;
#X msg 192 690 73;
#X msg 207 708 74;
#X msg 222 690 75;
#X msg 234 707 76;
#X msg 606 511 122;
#X msg 628 493 115;
#X msg 639 512 120;
#X msg 654 493 100;
#X msg 670 511 99;
#X msg 704 510 118;
#X msg 765 511 110;
#X msg 793 492 106;
#X msg 799 511 109;
#X obj 605 661 bng 15 250 50 0 empty empty empty 17 7 0 10 -262144
-1 -1;
#X obj 612 644 bng 15 250 50 0 empty empty empty 17 7 0 10 -262144
-1 -1;
#X obj 622 661 bng 15 250 50 0 empty empty empty 17 7 0 10 -262144
-1 -1;
#X obj 630 644 bng 15 250 50 0 empty empty empty 17 7 0 10 -262144
-1 -1;
#X obj 638 661 bng 15 250 50 0 empty empty empty 17 7 0 10 -262144
-1 -1;
#X obj 656 661 bng 15 250 50 0 empty empty empty 17 7 0 10 -262144
-1 -1;
#X obj 665 644 bng 15 250 50 0 empty empty empty 17 7 0 10 -262144
-1 -1;
#X obj 674 661 bng 15 250 50 0 empty empty empty 17 7 0 10 -262144
-1 -1;
#X obj 687 644 bng 15 250 50 0 empty empty empty 17 7 0 10 -262144
-1 -1;
#X obj 693 661 bng 15 250 50 0 empty empty empty 17 7 0 10 -262144
-1 -1;
#X obj 707 644 bng 15 250 50 0 empty empty empty 17 7 0 10 -262144
-1 -1;
#X obj 715 661 bng 15 250 50 0 empty empty empty 17 7 0 10 -262144
-1 -1;
#X obj 736 661 bng 15 250 50 0 empty empty empty 17 7 0 10 -262144
-1 -1;
#X obj 751 644 bng 15 250 50 0 empty empty empty 17 7 0 10 -262144
-1 -1;
#X obj 758 661 bng 15 250 50 0 empty empty empty 17 7 0 10 -262144
-1 -1;
#X obj 774 645 bng 15 250 50 0 empty empty empty 17 7 0 10 -262144
-1 -1;
#X obj 784 660 bng 15 250 50 0 empty empty empty 17 7 0 10 -262144
-1 -1;
#X msg 760 492 104;
#X msg 726 491 103;
#X msg 736 511 98;
#X msg 860 492 108;
#X msg 842 511 44;
#X msg 867 511 46;
#X msg 887 491 59;
#X msg 895 511 47;
#X obj 634 456 select 113 50 119 51 101 114 53 116 54 121 55 117 105
57 111 48 112 91 61 93;
#X msg 935 495 61;
#X msg 952 511 93;
#X msg 925 511 91;
#X obj 804 660 bng 15 250 50 0 empty empty empty 17 7 0 10 -262144
-1 -1;
#X obj 814 644 bng 15 250 50 0 empty empty empty 17 7 0 10 -262144
-1 -1;
#X obj 828 660 bng 15 250 50 0 empty empty empty 17 7 0 10 -262144
-1 -1;
#X msg 606 708 60;
#X msg 613 692 61;
#X msg 630 708 62;
#X msg 640 693 63;
#X msg 656 709 64;
#X msg 683 710 65;
#X msg 692 692 66;
#X msg 709 711 67;
#X msg 717 693 68;
#X msg 735 712 69;
#X msg 752 695 70;
#X msg 762 713 71;
#X msg 794 713 72;
#X msg 806 695 73;
#X msg 821 713 74;
#X msg 836 695 75;
#X msg 848 712 76;
#X floatatom 648 406 5 0 0 0 - - -;
#X obj 657 431 bng 15 250 50 0 empty empty empty 17 7 0 10 -262144
-1 -1;
#X obj 2 737 s note;
#X obj 404 214 r noteoct;
#X obj 441 275 bng 15 250 50 0 empty empty empty 17 7 0 10 -262144
-1 -1;
#X obj 384 333 + 0;
#X floatatom 416 335 5 0 0 0 - - -;
#X obj 528 182 vsl 15 128 0 127 0 0 empty empty empty 0 -9 0 10 -262144
-1 -1 7900 1;
#X msg 462 335 1;
#X obj 654 59 sel 0 1 2 3 4;
#X msg 639 78 24;
#X msg 655 84 12;
#X msg 671 91 0;
#X msg 682 97 -12;
#X msg 704 104 -24;
#X obj 646 126 + 0;
#X obj 593 95 r noteoff;
#X obj 872 360 s noteoff;
#X obj 616 742 s noteoff;
#X obj 618 187 s noteoffoct;
#X obj 615 211 r noteoffoct;
#X obj 667 266 bng 15 250 50 0 empty empty empty 17 7 0 10 -262144
-1 -1;
#X obj 607 333 + 0;
#X floatatom 647 332 5 0 0 0 - - -;
#X msg 690 333 1;
#X obj 572 368 noteout;
#X obj 399 365 noteout;
#X obj -13 -11 change;
#X obj -17 -37 key;
#X floatatom 499 462 5 0 0 0 - - -;
#X msg 506 437 49;
#X msg 497 490 set \$1;
#X connect 0 0 6 0;
#X connect 0 0 48 0;
#X connect 1 0 4 0;
#X connect 1 0 242 0;
#X connect 2 0 3 0;
#X connect 4 0 5 0;
#X connect 4 0 103 0;
#X connect 8 0 25 0;
#X connect 9 0 26 0;
#X connect 10 0 27 0;
#X connect 11 0 28 0;
#X connect 11 0 45 0;
#X connect 12 0 29 0;
#X connect 13 0 30 0;
#X connect 14 0 34 0;
#X connect 15 0 35 0;
#X connect 16 0 36 0;
#X connect 17 0 18 0;
#X connect 17 0 251 0;
#X connect 18 0 19 0;
#X connect 18 1 20 0;
#X connect 18 2 21 0;
#X connect 18 3 22 0;
#X connect 18 4 23 0;
#X connect 19 0 24 1;
#X connect 20 0 24 1;
#X connect 21 0 24 1;
#X connect 22 0 24 1;
#X connect 23 0 24 1;
#X connect 24 0 70 0;
#X connect 25 0 42 0;
#X connect 26 0 43 0;
#X connect 27 0 44 0;
#X connect 29 0 46 0;
#X connect 30 0 56 0;
#X connect 31 0 57 0;
#X connect 32 0 58 0;
#X connect 33 0 59 0;
#X connect 34 0 60 0;
#X connect 35 0 61 0;
#X connect 36 0 62 0;
#X connect 37 0 63 0;
#X connect 38 0 64 0;
#X connect 39 0 65 0;
#X connect 40 0 66 0;
#X connect 41 0 67 0;
#X connect 42 0 68 0;
#X connect 43 0 68 0;
#X connect 44 0 68 0;
#X connect 45 0 68 0;
#X connect 46 0 68 0;
#X connect 47 0 33 0;
#X connect 48 0 8 0;
#X connect 48 1 9 0;
#X connect 48 2 10 0;
#X connect 48 3 11 0;
#X connect 48 4 12 0;
#X connect 48 5 13 0;
#X connect 48 6 50 0;
#X connect 48 7 49 0;
#X connect 48 8 47 0;
#X connect 48 9 14 0;
#X connect 48 10 15 0;
#X connect 48 11 16 0;
#X connect 48 12 52 0;
#X connect 48 13 51 0;
#X connect 48 14 53 0;
#X connect 48 15 54 0;
#X connect 48 16 55 0;
#X connect 49 0 32 0;
#X connect 50 0 31 0;
#X connect 51 0 38 0;
#X connect 52 0 37 0;
#X connect 53 0 39 0;
#X connect 54 0 40 0;
#X connect 55 0 41 0;
#X connect 56 0 68 0;
#X connect 57 0 68 0;
#X connect 58 0 68 0;
#X connect 59 0 68 0;
#X connect 60 0 68 0;
#X connect 61 0 68 0;
#X connect 62 0 68 0;
#X connect 63 0 68 0;
#X connect 64 0 68 0;
#X connect 65 0 68 0;
#X connect 66 0 68 0;
#X connect 67 0 68 0;
#X connect 69 0 24 0;
#X connect 71 0 80 0;
#X connect 72 0 81 0;
#X connect 73 0 82 0;
#X connect 74 0 83 0;
#X connect 74 0 100 0;
#X connect 75 0 84 0;
#X connect 76 0 85 0;
#X connect 77 0 89 0;
#X connect 78 0 90 0;
#X connect 79 0 91 0;
#X connect 80 0 97 0;
#X connect 81 0 98 0;
#X connect 82 0 99 0;
#X connect 84 0 101 0;
#X connect 85 0 111 0;
#X connect 86 0 112 0;
#X connect 87 0 113 0;
#X connect 88 0 114 0;
#X connect 89 0 115 0;
#X connect 90 0 116 0;
#X connect 91 0 117 0;
#X connect 92 0 118 0;
#X connect 93 0 119 0;
#X connect 94 0 120 0;
#X connect 95 0 121 0;
#X connect 96 0 122 0;
#X connect 97 0 259 0;
#X connect 98 0 259 0;
#X connect 99 0 259 0;
#X connect 100 0 259 0;
#X connect 101 0 259 0;
#X connect 102 0 88 0;
#X connect 103 0 71 0;
#X connect 103 1 72 0;
#X connect 103 2 73 0;
#X connect 103 3 74 0;
#X connect 103 4 75 0;
#X connect 103 5 76 0;
#X connect 103 6 105 0;
#X connect 103 7 104 0;
#X connect 103 8 102 0;
#X connect 103 9 77 0;
#X connect 103 10 78 0;
#X connect 103 11 79 0;
#X connect 103 12 107 0;
#X connect 103 13 106 0;
#X connect 103 14 108 0;
#X connect 103 15 109 0;
#X connect 103 16 110 0;
#X connect 104 0 87 0;
#X connect 105 0 86 0;
#X connect 106 0 93 0;
#X connect 107 0 92 0;
#X connect 108 0 94 0;
#X connect 109 0 95 0;
#X connect 110 0 96 0;
#X connect 111 0 259 0;
#X connect 112 0 259 0;
#X connect 113 0 259 0;
#X connect 114 0 259 0;
#X connect 115 0 259 0;
#X connect 116 0 259 0;
#X connect 117 0 259 0;
#X connect 118 0 259 0;
#X connect 119 0 259 0;
#X connect 120 0 259 0;
#X connect 121 0 259 0;
#X connect 122 0 259 0;
#X connect 125 0 134 0;
#X connect 126 0 135 0;
#X connect 127 0 136 0;
#X connect 128 0 137 0;
#X connect 128 0 170 0;
#X connect 129 0 138 0;
#X connect 130 0 139 0;
#X connect 131 0 143 0;
#X connect 132 0 144 0;
#X connect 133 0 145 0;
#X connect 134 0 167 0;
#X connect 135 0 168 0;
#X connect 136 0 169 0;
#X connect 138 0 171 0;
#X connect 139 0 172 0;
#X connect 140 0 173 0;
#X connect 141 0 174 0;
#X connect 142 0 175 0;
#X connect 143 0 176 0;
#X connect 144 0 177 0;
#X connect 145 0 178 0;
#X connect 146 0 179 0;
#X connect 147 0 180 0;
#X connect 148 0 181 0;
#X connect 149 0 182 0;
#X connect 150 0 183 0;
#X connect 151 0 142 0;
#X connect 152 0 141 0;
#X connect 153 0 140 0;
#X connect 154 0 147 0;
#X connect 155 0 146 0;
#X connect 156 0 148 0;
#X connect 157 0 149 0;
#X connect 158 0 150 0;
#X connect 159 0 125 0;
#X connect 159 1 126 0;
#X connect 159 2 127 0;
#X connect 159 3 128 0;
#X connect 159 4 129 0;
#X connect 159 5 130 0;
#X connect 159 6 153 0;
#X connect 159 7 152 0;
#X connect 159 8 151 0;
#X connect 159 9 131 0;
#X connect 159 10 132 0;
#X connect 159 11 133 0;
#X connect 159 12 155 0;
#X connect 159 13 154 0;
#X connect 159 14 156 0;
#X connect 159 15 157 0;
#X connect 159 16 158 0;
#X connect 159 17 162 0;
#X connect 159 18 160 0;
#X connect 159 19 161 0;
#X connect 160 0 165 0;
#X connect 161 0 166 0;
#X connect 162 0 164 0;
#X connect 163 0 123 0;
#X connect 163 0 159 0;
#X connect 167 0 244 0;
#X connect 168 0 244 0;
#X connect 169 0 244 0;
#X connect 170 0 244 0;
#X connect 171 0 244 0;
#X connect 172 0 244 0;
#X connect 173 0 244 0;
#X connect 174 0 244 0;
#X connect 175 0 244 0;
#X connect 176 0 244 0;
#X connect 177 0 244 0;
#X connect 178 0 244 0;
#X connect 179 0 244 0;
#X connect 180 0 244 0;
#X connect 181 0 244 0;
#X connect 182 0 244 0;
#X connect 183 0 244 0;
#X connect 184 0 193 0;
#X connect 185 0 194 0;
#X connect 186 0 195 0;
#X connect 187 0 196 0;
#X connect 187 0 228 0;
#X connect 188 0 197 0;
#X connect 189 0 198 0;
#X connect 190 0 202 0;
#X connect 191 0 203 0;
#X connect 192 0 204 0;
#X connect 193 0 225 0;
#X connect 194 0 226 0;
#X connect 195 0 227 0;
#X connect 197 0 229 0;
#X connect 198 0 230 0;
#X connect 199 0 231 0;
#X connect 200 0 232 0;
#X connect 201 0 233 0;
#X connect 202 0 234 0;
#X connect 203 0 235 0;
#X connect 204 0 236 0;
#X connect 205 0 237 0;
#X connect 206 0 238 0;
#X connect 207 0 239 0;
#X connect 208 0 240 0;
#X connect 209 0 241 0;
#X connect 210 0 201 0;
#X connect 211 0 200 0;
#X connect 212 0 199 0;
#X connect 213 0 206 0;
#X connect 214 0 205 0;
#X connect 215 0 207 0;
#X connect 216 0 208 0;
#X connect 217 0 209 0;
#X connect 218 0 184 0;
#X connect 218 1 185 0;
#X connect 218 2 186 0;
#X connect 218 3 187 0;
#X connect 218 4 188 0;
#X connect 218 5 189 0;
#X connect 218 6 212 0;
#X connect 218 7 211 0;
#X connect 218 8 210 0;
#X connect 218 9 190 0;
#X connect 218 10 191 0;
#X connect 218 11 192 0;
#X connect 218 12 214 0;
#X connect 218 13 213 0;
#X connect 218 14 215 0;
#X connect 218 15 216 0;
#X connect 218 16 217 0;
#X connect 218 17 221 0;
#X connect 218 18 219 0;
#X connect 218 19 220 0;
#X connect 219 0 223 0;
#X connect 220 0 224 0;
#X connect 221 0 222 0;
#X connect 225 0 260 0;
#X connect 226 0 260 0;
#X connect 227 0 260 0;
#X connect 228 0 260 0;
#X connect 229 0 260 0;
#X connect 230 0 260 0;
#X connect 231 0 260 0;
#X connect 232 0 260 0;
#X connect 233 0 260 0;
#X connect 234 0 260 0;
#X connect 235 0 260 0;
#X connect 236 0 260 0;
#X connect 237 0 260 0;
#X connect 238 0 260 0;
#X connect 239 0 260 0;
#X connect 240 0 260 0;
#X connect 241 0 260 0;
#X connect 242 0 243 0;
#X connect 242 0 218 0;
#X connect 245 0 247 1;
#X connect 245 0 246 0;
#X connect 246 0 248 0;
#X connect 246 0 250 0;
#X connect 246 0 247 0;
#X connect 247 0 268 0;
#X connect 248 0 268 1;
#X connect 249 0 248 0;
#X connect 250 0 268 2;
#X connect 251 0 252 0;
#X connect 251 1 253 0;
#X connect 251 2 254 0;
#X connect 251 3 255 0;
#X connect 251 4 256 0;
#X connect 252 0 257 1;
#X connect 253 0 257 1;
#X connect 254 0 257 1;
#X connect 255 0 257 1;
#X connect 256 0 257 1;
#X connect 257 0 261 0;
#X connect 258 0 257 0;
#X connect 262 0 264 1;
#X connect 262 0 263 0;
#X connect 263 0 265 0;
#X connect 263 0 266 0;
#X connect 263 0 264 0;
#X connect 263 0 272 0;
#X connect 264 0 267 0;
#X connect 265 0 267 1;
#X connect 266 0 267 2;
#X connect 269 0 0 0;
#X connect 269 0 163 0;
#X connect 270 0 269 0;
#X connect 271 0 273 0;
#X connect 272 0 271 0;
#X connect 273 0 269 0;
#X restore 368 36 pd keytomidi;
#X floatatom 567 39 5 0 0 0 - - -;
#X obj 530 81 ftom;
#X connect 0 0 205 0;
#X connect 0 0 221 0;
#X connect 1 0 0 0;
#X connect 3 0 1 0;
#X connect 4 0 5 1;
#X connect 5 0 6 0;
#X connect 5 0 2 1;
#X connect 5 0 2 0;
#X connect 7 0 9 0;
#X connect 9 0 6 0;
#X connect 10 0 0 1;
#X connect 11 0 16 0;
#X connect 12 0 11 0;
#X connect 13 0 11 0;
#X connect 13 0 20 0;
#X connect 13 0 26 0;
#X connect 13 0 32 0;
#X connect 13 0 38 0;
#X connect 13 0 44 0;
#X connect 13 0 50 0;
#X connect 13 0 56 0;
#X connect 13 0 68 0;
#X connect 13 0 62 0;
#X connect 14 0 74 0;
#X connect 15 0 239 0;
#X connect 16 0 17 0;
#X connect 17 0 93 0;
#X connect 18 0 17 1;
#X connect 19 0 16 1;
#X connect 20 0 22 0;
#X connect 21 0 20 0;
#X connect 22 0 23 0;
#X connect 23 0 94 0;
#X connect 24 0 23 1;
#X connect 25 0 22 1;
#X connect 26 0 28 0;
#X connect 27 0 26 0;
#X connect 28 0 29 0;
#X connect 29 0 95 0;
#X connect 30 0 29 1;
#X connect 31 0 28 1;
#X connect 32 0 34 0;
#X connect 33 0 32 0;
#X connect 34 0 35 0;
#X connect 35 0 96 0;
#X connect 36 0 35 1;
#X connect 37 0 34 1;
#X connect 38 0 40 0;
#X connect 39 0 38 0;
#X connect 40 0 41 0;
#X connect 41 0 97 0;
#X connect 42 0 41 1;
#X connect 43 0 40 1;
#X connect 44 0 46 0;
#X connect 45 0 44 0;
#X connect 46 0 47 0;
#X connect 47 0 98 0;
#X connect 48 0 47 1;
#X connect 49 0 46 1;
#X connect 50 0 52 0;
#X connect 51 0 50 0;
#X connect 52 0 53 0;
#X connect 53 0 99 0;
#X connect 54 0 53 1;
#X connect 55 0 52 1;
#X connect 56 0 58 0;
#X connect 57 0 56 0;
#X connect 58 0 59 0;
#X connect 59 0 100 0;
#X connect 60 0 59 1;
#X connect 61 0 58 1;
#X connect 62 0 64 0;
#X connect 63 0 62 0;
#X connect 64 0 65 0;
#X connect 65 0 101 0;
#X connect 66 0 65 1;
#X connect 67 0 64 1;
#X connect 68 0 70 0;
#X connect 69 0 68 0;
#X connect 70 0 71 0;
#X connect 71 0 92 0;
#X connect 72 0 71 1;
#X connect 73 0 70 1;
#X connect 74 0 103 0;
#X connect 75 0 19 0;
#X connect 75 0 18 0;
#X connect 75 0 25 0;
#X connect 75 0 31 0;
#X connect 75 0 37 0;
#X connect 75 0 43 0;
#X connect 75 0 49 0;
#X connect 75 0 55 0;
#X connect 75 0 61 0;
#X connect 75 0 67 0;
#X connect 75 0 73 0;
#X connect 75 0 24 0;
#X connect 75 0 30 0;
#X connect 75 0 36 0;
#X connect 75 0 42 0;
#X connect 75 0 48 0;
#X connect 75 0 54 0;
#X connect 75 0 60 0;
#X connect 75 0 66 0;
#X connect 75 0 72 0;
#X connect 75 0 93 0;
#X connect 75 0 94 0;
#X connect 75 0 95 0;
#X connect 75 0 96 0;
#X connect 75 0 97 0;
#X connect 75 0 98 0;
#X connect 75 0 99 0;
#X connect 75 0 100 0;
#X connect 75 0 101 0;
#X connect 75 0 92 0;
#X connect 81 0 69 0;
#X connect 82 0 75 0;
#X connect 82 0 81 0;
#X connect 82 0 91 0;
#X connect 82 0 90 0;
#X connect 82 0 89 0;
#X connect 82 0 88 0;
#X connect 82 0 87 0;
#X connect 82 0 86 0;
#X connect 82 0 85 0;
#X connect 82 0 84 0;
#X connect 82 0 83 0;
#X connect 83 0 12 0;
#X connect 84 0 21 0;
#X connect 85 0 27 0;
#X connect 86 0 33 0;
#X connect 87 0 39 0;
#X connect 88 0 45 0;
#X connect 89 0 51 0;
#X connect 90 0 57 0;
#X connect 91 0 63 0;
#X connect 92 0 1 10;
#X connect 93 0 1 1;
#X connect 94 0 1 2;
#X connect 95 0 1 3;
#X connect 96 0 1 4;
#X connect 97 0 1 5;
#X connect 98 0 1 6;
#X connect 99 0 1 7;
#X connect 100 0 1 8;
#X connect 101 0 1 9;
#X connect 104 0 13 0;
#X connect 106 0 207 0;
#X connect 107 0 218 0;
#X connect 108 0 217 0;
#X connect 110 0 82 0;
#X connect 110 0 182 0;
#X connect 110 0 107 0;
#X connect 110 0 108 0;
#X connect 110 0 106 0;
#X connect 110 0 115 0;
#X connect 110 0 10 0;
#X connect 110 0 228 0;
#X connect 110 0 245 0;
#X connect 110 0 248 0;
#X connect 110 0 213 0;
#X connect 110 0 240 0;
#X connect 111 0 114 0;
#X connect 111 0 203 0;
#X connect 112 0 111 0;
#X connect 113 0 112 0;
#X connect 114 0 219 0;
#X connect 115 0 111 1;
#X connect 116 0 119 0;
#X connect 117 0 116 0;
#X connect 118 0 116 0;
#X connect 118 0 123 0;
#X connect 118 0 129 0;
#X connect 118 0 135 0;
#X connect 118 0 141 0;
#X connect 118 0 147 0;
#X connect 118 0 153 0;
#X connect 118 0 159 0;
#X connect 118 0 171 0;
#X connect 118 0 165 0;
#X connect 119 0 120 0;
#X connect 120 0 193 0;
#X connect 121 0 120 1;
#X connect 122 0 119 1;
#X connect 123 0 125 0;
#X connect 124 0 123 0;
#X connect 125 0 126 0;
#X connect 126 0 194 0;
#X connect 127 0 126 1;
#X connect 128 0 125 1;
#X connect 129 0 131 0;
#X connect 130 0 129 0;
#X connect 131 0 132 0;
#X connect 132 0 195 0;
#X connect 133 0 132 1;
#X connect 134 0 131 1;
#X connect 135 0 137 0;
#X connect 136 0 135 0;
#X connect 137 0 138 0;
#X connect 138 0 196 0;
#X connect 139 0 138 1;
#X connect 140 0 137 1;
#X connect 141 0 143 0;
#X connect 142 0 141 0;
#X connect 143 0 144 0;
#X connect 144 0 197 0;
#X connect 145 0 144 1;
#X connect 146 0 143 1;
#X connect 147 0 149 0;
#X connect 148 0 147 0;
#X connect 149 0 150 0;
#X connect 150 0 198 0;
#X connect 151 0 150 1;
#X connect 152 0 149 1;
#X connect 153 0 155 0;
#X connect 154 0 153 0;
#X connect 155 0 156 0;
#X connect 156 0 199 0;
#X connect 157 0 156 1;
#X connect 158 0 155 1;
#X connect 159 0 161 0;
#X connect 160 0 159 0;
#X connect 161 0 162 0;
#X connect 162 0 200 0;
#X connect 163 0 162 1;
#X connect 164 0 161 1;
#X connect 165 0 167 0;
#X connect 166 0 165 0;
#X connect 167 0 168 0;
#X connect 168 0 201 0;
#X connect 169 0 168 1;
#X connect 170 0 167 1;
#X connect 171 0 173 0;
#X connect 172 0 171 0;
#X connect 173 0 174 0;
#X connect 174 0 192 0;
#X connect 175 0 174 1;
#X connect 176 0 173 1;
#X connect 177 0 122 0;
#X connect 177 0 121 0;
#X connect 177 0 128 0;
#X connect 177 0 134 0;
#X connect 177 0 140 0;
#X connect 177 0 146 0;
#X connect 177 0 152 0;
#X connect 177 0 158 0;
#X connect 177 0 164 0;
#X connect 177 0 170 0;
#X connect 177 0 176 0;
#X connect 177 0 127 0;
#X connect 177 0 133 0;
#X connect 177 0 139 0;
#X connect 177 0 145 0;
#X connect 177 0 151 0;
#X connect 177 0 157 0;
#X connect 177 0 163 0;
#X connect 177 0 169 0;
#X connect 177 0 175 0;
#X connect 177 0 193 0;
#X connect 177 0 194 0;
#X connect 177 0 195 0;
#X connect 177 0 196 0;
#X connect 177 0 197 0;
#X connect 177 0 198 0;
#X connect 177 0 199 0;
#X connect 177 0 200 0;
#X connect 177 0 201 0;
#X connect 177 0 192 0;
#X connect 181 0 172 0;
#X connect 182 0 177 0;
#X connect 182 0 181 0;
#X connect 182 0 191 0;
#X connect 182 0 190 0;
#X connect 182 0 189 0;
#X connect 182 0 188 0;
#X connect 182 0 187 0;
#X connect 182 0 186 0;
#X connect 182 0 185 0;
#X connect 182 0 184 0;
#X connect 182 0 183 0;
#X connect 183 0 117 0;
#X connect 184 0 124 0;
#X connect 185 0 130 0;
#X connect 186 0 136 0;
#X connect 187 0 142 0;
#X connect 188 0 148 0;
#X connect 189 0 154 0;
#X connect 190 0 160 0;
#X connect 191 0 166 0;
#X connect 192 0 112 10;
#X connect 193 0 112 1;
#X connect 194 0 112 2;
#X connect 195 0 112 3;
#X connect 196 0 112 4;
#X connect 197 0 112 5;
#X connect 198 0 112 6;
#X connect 199 0 112 7;
#X connect 200 0 112 8;
#X connect 201 0 112 9;
#X connect 202 0 118 0;
#X connect 203 0 236 0;
#X connect 204 0 114 1;
#X connect 205 0 235 0;
#X connect 208 0 210 0;
#X connect 209 0 208 0;
#X connect 209 1 208 1;
#X connect 211 0 212 0;
#X connect 212 0 15 0;
#X connect 213 0 212 1;
#X connect 215 0 205 1;
#X connect 216 0 203 1;
#X connect 221 0 222 0;
#X connect 223 0 221 1;
#X connect 224 0 3 0;
#X connect 225 0 224 1;
#X connect 226 0 113 0;
#X connect 227 0 226 1;
#X connect 228 0 229 0;
#X connect 234 0 5 0;
#X connect 237 0 5 0;
#X connect 239 0 224 0;
#X connect 240 0 239 1;
#X connect 242 0 247 0;
#X connect 243 0 244 0;
#X connect 244 0 242 0;
#X connect 245 0 244 1;
#X connect 247 0 226 0;
#X connect 248 0 247 1;
#X connect 250 0 110 0;
#X connect 262 0 263 0;
#X connect 263 0 210 0;
