#N canvas 797 313 959 578 16;
#X obj 286 18 udpreceive 14000;
#X obj 272 67 unpackOSC;
#X obj 280 125 pipelist;
#X obj 474 114 print no_match;
#X obj 289 167 routeOSC /ConductHand;
#X obj 70 215 print conducthandleft;
#X obj 462 213 print conducthandright;
#X floatatom 175 322 5 0 0 0 - - -;
#X obj 308 214 unpack f f;
#X floatatom 432 352 5 0 0 0 - - -;
#X obj 414 285 / 10000;
#X obj 200 515 dac~;
#N canvas 114 204 783 545 synth-voice 0;
#X obj 128 51 unpack;
#X floatatom 131 90 5 0 0 0 - - -;
#X floatatom 384 123 5 0 0 0 - - -;
#X obj 167 297 osc~;
#X obj 111 151 mtof;
#X floatatom 55 184 5 0 0 0 - - -;
#X obj 174 336 *~;
#X obj 373 170 / 127;
#X obj 349 296 line~;
#X obj 309 92 sel 0;
#X obj 348 212 pack 0 0;
#X obj 245 188 pack 0 0;
#X obj 152 201 sig~;
#X obj 156 237 *~;
#X obj 284 33 sig~;
#X obj 284 55 lop~ 10;
#X obj 162 266 lop~;
#X obj 221 246 r glide;
#X obj 457 171 r attack;
#X obj 290 151 r decay;
#X obj 285 5 r tune;
#X obj 145 396 outlet~;
#X obj 125 3 inlet;
#X obj 118 122 ftom;
#X floatatom 465 38 5 0 0 0 - - -;
#X connect 0 0 1 0;
#X connect 0 1 9 0;
#X connect 1 0 23 0;
#X connect 2 0 7 0;
#X connect 3 0 6 0;
#X connect 4 0 5 0;
#X connect 5 0 12 0;
#X connect 6 0 21 0;
#X connect 7 0 10 0;
#X connect 8 0 6 1;
#X connect 9 0 11 0;
#X connect 9 1 2 0;
#X connect 10 0 8 0;
#X connect 11 0 8 0;
#X connect 12 0 13 0;
#X connect 13 0 16 0;
#X connect 14 0 15 0;
#X connect 15 0 13 1;
#X connect 16 0 3 0;
#X connect 17 0 16 1;
#X connect 18 0 10 1;
#X connect 19 0 11 1;
#X connect 20 0 14 0;
#X connect 20 0 24 0;
#X connect 22 0 0 0;
#X connect 23 0 4 0;
#X restore 633 377 pd synth-voice;
#X obj 134 443 s attack;
#X floatatom 69 376 5 0 0 0 - - -;
#X floatatom 150 371 5 0 0 0 - - -;
#X floatatom 234 379 5 0 0 0 - - -;
#X obj 44 446 s tune;
#X obj 250 433 s glide;
#X floatatom 332 384 5 0 0 0 - - -;
#X obj 357 427 s decay;
#X connect 0 0 1 0;
#X connect 1 0 2 0;
#X connect 2 0 4 0;
#X connect 4 0 8 0;
#X connect 4 1 3 0;
#X connect 7 0 12 0;
#X connect 8 0 7 0;
#X connect 8 1 10 0;
#X connect 10 0 9 0;
#X connect 12 0 11 0;
#X connect 14 0 17 0;
#X connect 15 0 13 0;
#X connect 16 0 18 0;
#X connect 19 0 20 0;
