#N canvas 596 285 1127 629 16;
#X obj 21 47 unpackOSC;
#X obj 32 99 pipelist;
#X obj 34 149 routeOSC /ConductHand;
#X obj 510 56 unpackOSC;
#X obj 504 96 pipelist;
#X obj 37 208 outlet;
#X obj 489 216 outlet;
#X msg 270 440 disconnect;
#X obj 220 327 packOSC;
#X obj 220 541 tgl 15 0 empty empty connexion 17 7 0 10 -257985 -1
-1 0 1;
#X obj 220 509 udpsend;
#X msg 218 237 send /Flicker 1;
#X msg 276 356 connect 192.168.144.100 10000;
#X msg 321 292 send /Flicker 0;
#X obj 499 149 routeOSC /Acc /Gyros /Sensor;
#X obj 564 213 outlet;
#X obj 653 216 outlet;
#X msg 646 455 disconnect;
#X obj 596 342 packOSC;
#X obj 596 556 tgl 15 0 empty empty connexion 17 7 0 10 -257985 -1
-1 0 1;
#X obj 596 524 udpsend;
#X msg 661 403 connect 192.168.144.100 10000;
#X msg 596 252 send /LeftVibe 1000;
#X msg 701 307 send /RightVibe 1000;
#X msg 870 230 send /RightVibe 0;
#X msg 764 185 send /LeftVibe 0;
#X obj 503 10 udpreceive 11000;
#X obj 26 10 udpreceive 11001;
#X connect 0 0 1 0;
#X connect 1 0 2 0;
#X connect 2 0 5 0;
#X connect 3 0 4 0;
#X connect 4 0 14 0;
#X connect 7 0 10 0;
#X connect 8 0 10 0;
#X connect 10 0 9 0;
#X connect 11 0 8 0;
#X connect 12 0 10 0;
#X connect 13 0 8 0;
#X connect 14 0 6 0;
#X connect 14 1 15 0;
#X connect 14 2 16 0;
#X connect 17 0 20 0;
#X connect 18 0 20 0;
#X connect 20 0 19 0;
#X connect 21 0 20 0;
#X connect 22 0 18 0;
#X connect 23 0 18 0;
#X connect 24 0 18 0;
#X connect 25 0 18 0;
#X connect 26 0 3 0;
#X connect 27 0 0 0;
