#N canvas 797 313 959 578 16;
#X obj 29 11 udpreceive 14000;
#X obj 21 47 unpackOSC;
#X obj 32 99 pipelist;
#X obj 270 153 print no_match;
#X obj 46 151 routeOSC /ConductHand;
#X obj 503 10 udpreceive 14000;
#X obj 510 56 unpackOSC;
#X obj 504 96 pipelist;
#X obj 55 240 outlet;
#X obj 489 216 outlet;
#X msg 270 440 disconnect;
#X obj 220 327 packOSC;
#X obj 220 541 tgl 15 0 empty empty connexion 17 7 0 10 -257985 -1
-1 1 1;
#X obj 220 509 udpsend;
#X msg 218 237 send /Flicker 1;
#X msg 276 356 connect 192.168.144.100 10000;
#X msg 321 292 send /Flicker 0;
#X obj 499 149 routeOSC /Acc /Gyros /Sensor;
#X obj 564 213 outlet;
#X obj 653 216 outlet;
#X obj 807 103 print no_match;
#X connect 0 0 1 0;
#X connect 1 0 2 0;
#X connect 2 0 4 0;
#X connect 4 0 8 0;
#X connect 4 1 3 0;
#X connect 5 0 6 0;
#X connect 6 0 7 0;
#X connect 7 0 17 0;
#X connect 10 0 13 0;
#X connect 11 0 13 0;
#X connect 13 0 12 0;
#X connect 14 0 11 0;
#X connect 15 0 13 0;
#X connect 16 0 11 0;
#X connect 17 0 9 0;
#X connect 17 1 18 0;
#X connect 17 2 19 0;
#X connect 17 3 20 0;
